<svg width="104" height="30" xmlns="http://www.w3.org/2000/svg" xmlns:xlink="http://www.w3.org/1999/xlink" xmlns:svgjs="http://svgjs.com/svgjs" viewBox="190 10 104 30"><svg width="28" height="27" xmlns="http://www.w3.org/2000/svg" xmlns:xlink="http://www.w3.org/1999/xlink" xmlns:svgjs="http://svgjs.com/svgjs" viewBox="0.001 0 27.997 27" fill="#09114c" x="190" y="13"><svg xmlns="http://www.w3.org/2000/svg" xmlns:xlink="http://www.w3.org/1999/xlink" width="28" height="27" viewBox="0 0.271 27.716 26.729"><path paint-order="stroke fill markers" fill-rule="evenodd" d="M9.17 10.302l3.931 2.269v2.574c-.002 1.046-.752 1.405-1.494 1.053.931.458 1.493.702 1.494 1.783v7.725c0 .823-.699 1.813-2.149.976L1.59 21.277C.262 20.51 0 20.036 0 18.315V5.007l3.823 2.206v9.884c0 .631.035 1.19.597 1.514l4.112 2.374c.29.167.64.124.64-.35V17.95c0-.506-.045-.79-.478-1.04l-1.2-.691v-3.37l1.038.6c.29.166.64.123.64-.351v-2.796zm3.258.133L1.395 4.065l3.83-2.211 8.249 4.762a.998.998 0 0 0 .922 0l3.698-2.135c.38-.22.429-.485.078-.687l-2.261-1.306L19.749.27l5.229 3.017c.732.423.615 1.196.016 1.541l-9.708 5.606a2.877 2.877 0 0 1-2.858 0zm2.186 9.583v5.688c0 .823.7 1.813 2.15.976l9.362-5.405c1.328-.767 1.59-1.241 1.59-2.962V7.493c0-1.138-.694-2.086-2.28-1.168-3.642 2.109-7.171 4.163-10.822 6.27v3.959c2.887-1.674 5.77-3.345 8.653-5.02.256-.148.56-.132.627.203v1.404l-7.985 4.618c-1.135.656-1.295 1.007-1.295 2.258zm9.28-2.733v.408c0 .402-.036.717-.598 1.041l-4.195 2.438c-.29.166-.678.146-.678-.328v-.57c0-.375.138-.58.456-.764L23.201 17c.256-.147.692-.228.692.284z"/></svg></svg><svg width="8" height="5" xmlns="http://www.w3.org/2000/svg" xmlns:xlink="http://www.w3.org/1999/xlink" xmlns:svgjs="http://svgjs.com/svgjs" viewBox="0 0.187 8 4.625" fill="#ffac55" x="200" y="10"><svg xmlns="http://www.w3.org/2000/svg" xmlns:xlink="http://www.w3.org/1999/xlink" width="8" height="5" viewBox="0.252 0 7.211 4.169"><path paint-order="stroke fill markers" fill-rule="evenodd" d="M7.283 1.848L4.244.094a.833.833 0 0 0-.768 0L.383 1.88c-.172.124-.193.3.049.44l.32.184 2.72 1.571a.834.834 0 0 0 .77 0L7.283 2.32c.263-.152.216-.347 0-.471z"/></svg></svg><svg width="69" height="27" xmlns="http://www.w3.org/2000/svg" xmlns:xlink="http://www.w3.org/1999/xlink" xmlns:svgjs="http://svgjs.com/svgjs" viewBox="0 0.366 69 26.267" fill="#09114c" x="225" y="11"><svg xmlns="http://www.w3.org/2000/svg" width="69" height="27" viewBox="0.753 0.964 67.527 25.707"><path paint-order="stroke fill markers" fill-rule="evenodd" d="M3.216 6.824c-.804 0-1.416-.253-1.835-.758C.962 5.561.753 4.83.753 3.874c0-.556.057-1.05.17-1.479.113-.43.273-.863.478-1.3h1.045A9.33 9.33 0 0 0 2 2.451a6.162 6.162 0 0 0-.145 1.406c0 .713.119 1.25.356 1.608.238.36.57.54.997.54.319 0 .566-.089.742-.264.176-.176.263-.42.263-.734 0-.297-.08-.528-.24-.693-.158-.164-.397-.246-.716-.246H2.85l.13-.82h.438c.232 0 .408-.04.527-.12a.382.382 0 0 0 .178-.333.52.52 0 0 0-.09-.316 1.922 1.922 0 0 0-.283-.292 3.949 3.949 0 0 1-.287-.283 1.024 1.024 0 0 1-.187-.32 1.355 1.355 0 0 1-.077-.491h.972c.006.146.05.275.134.39.084.113.204.24.36.38.173.15.305.293.398.425.092.133.137.29.137.474 0 .47-.334.767-1.005.892.357.065.637.213.84.446.202.232.303.54.303.924 0 .34-.085.647-.255.92-.17.272-.415.487-.734.644-.318.156-.697.235-1.134.235zm63.054 9.923c-.643 0-1.133-.17-1.47-.51-.338-.34-.507-.814-.507-1.419v-3.8h1.07v3.768c0 .357.074.636.223.839.148.202.379.303.693.303.286 0 .504-.093.652-.279.148-.187.223-.434.223-.741 0-.222-.028-.409-.085-.56a3.59 3.59 0 0 0-.272-.543 3.012 3.012 0 0 1-.28-.559 1.895 1.895 0 0 1-.093-.632h1.062c.005.151.035.287.089.41.054.12.138.276.251.465.152.254.265.48.341.677a2.1 2.1 0 0 1 .113.742c0 .346-.08.657-.239.936a1.7 1.7 0 0 1-.692.66c-.304.162-.662.243-1.079.243zM2.876 26.671c-.643 0-1.133-.17-1.47-.511-.338-.34-.507-.813-.507-1.418V20.94h1.07v3.769c0 .356.074.636.223.838.148.203.379.304.693.304.286 0 .503-.093.652-.28.148-.186.223-.433.223-.741 0-.222-.028-.408-.085-.56a3.645 3.645 0 0 0-.272-.542 3.02 3.02 0 0 1-.28-.56 1.881 1.881 0 0 1-.093-.632h1.062c.005.152.035.288.089.41.055.121.138.277.251.466.152.254.265.48.34.677.076.197.114.444.114.741 0 .346-.08.658-.239.936a1.7 1.7 0 0 1-.693.66c-.302.163-.661.244-1.077.244h-.001zM8.1 20.94c.005.33.068.62.187.871s.299.544.542.88c.179.248.32.463.426.644.105.181.195.389.267.624.073.235.11.495.11.782 0 .384-.083.721-.248 1.013-.164.292-.4.517-.704.677-.305.16-.664.239-1.074.239-.41 0-.767-.079-1.07-.236a1.669 1.669 0 0 1-.697-.66 1.956 1.956 0 0 1-.243-.985c0-.426.116-.84.348-1.24l.924.317a2.151 2.151 0 0 0-.13.421c-.032.157-.048.31-.048.462 0 .34.074.61.222.807.15.197.38.295.693.295.308 0 .535-.097.68-.291.147-.195.22-.457.22-.787 0-.232-.031-.445-.093-.64a2.372 2.372 0 0 0-.227-.51 8.508 8.508 0 0 0-.369-.543 7.377 7.377 0 0 1-.425-.637 2.966 2.966 0 0 1-.385-1.503H8.1zm4.754 0c.005.33.067.62.186.871.12.251.3.544.543.88.179.248.32.463.426.644.105.181.194.389.267.624.073.235.11.495.11.782 0 .384-.083.721-.248 1.013a1.69 1.69 0 0 1-.705.677c-.305.16-.663.239-1.074.239-.41 0-.767-.079-1.07-.236a1.669 1.669 0 0 1-.697-.66 1.956 1.956 0 0 1-.242-.985c0-.426.116-.84.348-1.24l.924.317a2.151 2.151 0 0 0-.13.421 2.27 2.27 0 0 0-.048.462c0 .34.074.61.222.807.149.197.38.295.693.295.308 0 .535-.097.68-.291.147-.195.22-.457.22-.787 0-.232-.032-.445-.094-.64a2.372 2.372 0 0 0-.226-.51 8.749 8.749 0 0 0-.369-.543 7.25 7.25 0 0 1-.425-.637 2.95 2.95 0 0 1-.385-1.503h1.093zm5.045 2.075c.794.416 1.191.986 1.191 1.71 0 .35-.08.675-.242.972a1.797 1.797 0 0 1-.71.709c-.31.176-.684.264-1.122.264-.427 0-.797-.086-1.11-.256a1.774 1.774 0 0 1-.717-.693 1.941 1.941 0 0 1-.248-.972c0-.492.133-.89.397-1.196.265-.305.67-.576 1.216-.814a8.02 8.02 0 0 0 .612-.3.988.988 0 0 0 .288-.226.432.432 0 0 0 .089-.276.327.327 0 0 0-.138-.28c-.091-.067-.23-.101-.413-.101-.21 0-.37.038-.478.113a.372.372 0 0 0-.162.325.88.88 0 0 0 .024.21l-.932.236a1.092 1.092 0 0 1-.106-.462c0-.222.07-.421.211-.596a1.39 1.39 0 0 1 .588-.413c.251-.1.539-.15.863-.15.486 0 .874.109 1.163.328.289.218.433.5.433.846 0 .227-.055.42-.165.58-.111.16-.288.306-.531.441zm.081 1.677c0-.524-.273-.967-.819-1.33-.421.184-.71.382-.866.592-.157.211-.236.487-.236.827 0 .33.08.59.236.782.157.192.394.288.712.288.325 0 .568-.104.73-.312.162-.208.243-.49.243-.847zm3.79-3.874c.356 0 .675.068.956.203.281.135.5.33.656.584.157.254.235.556.235.907v2.35c0 .351-.072.662-.219.932-.146.27-.361.484-.647.64-.287.157-.636.236-1.046.236-.39 0-.727-.076-1.013-.227a1.613 1.613 0 0 1-.657-.617 1.709 1.709 0 0 1-.227-.875c0-.34.087-.67.26-.988l.948.283c-.08.184-.121.403-.121.657 0 .286.067.516.202.689.135.173.338.26.608.26.556 0 .834-.336.834-1.006v-2.35c0-.28-.066-.494-.198-.64-.133-.146-.323-.219-.572-.219-.248 0-.436.067-.563.199a.702.702 0 0 0-.19.506c0 .173.027.346.08.519l-.98.195a1.707 1.707 0 0 1-.187-.738c0-.292.079-.551.236-.778.156-.227.375-.404.656-.53.281-.128.597-.191.948-.191zm4.924 1.694c.356 0 .665.086.927.26.262.172.465.41.608.713.143.302.214.642.214 1.02 0 .644-.174 1.165-.522 1.565-.349.4-.847.6-1.496.6-.642 0-1.132-.188-1.466-.564-.335-.375-.503-.884-.503-1.527v-2.261c0-.513.14-.889.421-1.127.282-.238.651-.356 1.11-.356.2 0 .44.021.722.064.238.032.403.048.494.048.243 0 .479-.037.706-.113l.137.794a1.882 1.882 0 0 1-.778.146c-.124 0-.243-.008-.357-.024a6.286 6.286 0 0 1-.21-.033 3.033 3.033 0 0 0-.56-.057c-.205 0-.359.047-.461.142-.103.095-.154.242-.154.441v.698a1.51 1.51 0 0 1 .506-.312c.203-.079.423-.118.66-.118l.002.001zm-.26 3.347c.292 0 .512-.115.66-.345.15-.23.224-.555.224-.976 0-.827-.289-1.24-.868-1.24-.361 0-.67.132-.924.397v.875c0 .39.072.701.215.936.144.235.375.353.693.353zm2.72-1.961c0-.757.192-1.374.58-1.853.385-.478.919-.77 1.6-.878l-.049-.357h.972l-.04.357c.686.102 1.224.388 1.612.858.39.47.584 1.092.584 1.864 0 .562-.107 1.051-.32 1.467a2.287 2.287 0 0 1-.916.965c-.397.226-.863.34-1.398.34-.53 0-.992-.11-1.39-.332a2.238 2.238 0 0 1-.916-.957c-.213-.415-.32-.907-.32-1.475zm1.11 0c0 .659.134 1.148.401 1.467.268.318.64.478 1.115.478.486 0 .862-.16 1.126-.478.265-.319.398-.81.398-1.475 0-.573-.094-1.018-.28-1.333a1.44 1.44 0 0 0-.815-.653c.044.173.066.387.066.64v1.565h-.997v-1.557c0-.226.021-.44.064-.64a1.427 1.427 0 0 0-.802.653c-.183.316-.275.76-.275 1.333zm5.572 2.642a8.114 8.114 0 0 1-.457-1.39c-.117-.495-.175-1.088-.175-1.78 0-.89.154-1.539.462-1.944.308-.405.751-.608 1.33-.608.675 0 1.102.327 1.28.98.178-.653.619-.98 1.321-.98.551 0 .98.206 1.289.616.308.41.462 1.057.462 1.937 0 .697-.059 1.294-.174 1.791a7.521 7.521 0 0 1-.458 1.378h-1.054c.194-.481.34-.962.438-1.443a8.586 8.586 0 0 0 .146-1.685c0-.67-.065-1.135-.195-1.394-.13-.26-.321-.39-.575-.39a.585.585 0 0 0-.49.223c-.117.15-.175.378-.175.685v2.326h-1.07v-2.326c0-.6-.21-.9-.631-.9-.2 0-.359.058-.475.171-.116.114-.2.299-.25.555-.052.257-.078.61-.078 1.058 0 .648.048 1.213.146 1.693.097.481.245.957.446 1.427h-1.062zM6.131 3.549c0-.87.171-1.517.514-1.941.343-.424.855-.636 1.536-.636.643 0 1.145.208 1.504.624.36.416.538 1.067.538 1.954 0 .68-.052 1.273-.157 1.778-.106.505-.242.96-.41 1.366H8.611a9.11 9.11 0 0 0 .381-1.447c.086-.489.13-1.05.13-1.682 0-.61-.075-1.059-.224-1.345-.148-.286-.387-.43-.717-.43-.226 0-.409.059-.546.175-.139.116-.24.304-.304.563-.066.26-.098.608-.098 1.045 0 .638.043 1.2.13 1.686.086.486.219.964.397 1.435H6.715a7.888 7.888 0 0 1-.421-1.378A8.48 8.48 0 0 1 6.13 3.55zm9.503.462c.357.06.625.186.806.38.181.195.272.446.272.754 0 .34-.095.636-.284.888-.189.251-.457.446-.802.584a3.233 3.233 0 0 1-1.2.206 3.61 3.61 0 0 1-1.191-.178c-.34-.12-.604-.29-.79-.515a1.2 1.2 0 0 1-.28-.79c0-.06.006-.127.016-.202l1.127.105v.065c0 .227.103.4.307.519.206.119.47.178.795.178.367 0 .655-.08.863-.243.208-.162.312-.386.312-.673 0-.216-.061-.382-.182-.498-.121-.116-.299-.174-.531-.174h-.154l.121-.802h.122a.733.733 0 0 0 .56-.223c.14-.149.21-.388.21-.717 0-.303-.065-.531-.194-.685a.654.654 0 0 0-.527-.232c-.243 0-.468.073-.673.22.119.264.179.553.179.866 0 .357-.074.673-.22.949-.145.275-.354.49-.627.644-.273.154-.6.231-.977.231-.373 0-.699-.078-.977-.235a1.574 1.574 0 0 1-.636-.652 2.006 2.006 0 0 1-.219-.944c0-.357.073-.677.22-.961.145-.284.354-.506.627-.668.273-.163.598-.243.977-.243.513 0 .931.154 1.256.461a1.811 1.811 0 0 1 1.232-.461c.313 0 .593.07.838.21.247.14.438.337.576.588.138.251.206.531.206.839 0 .405-.098.72-.295.948-.197.227-.485.38-.864.462l.001-.001zm-2.942-.13c.249 0 .438-.086.567-.259.13-.173.195-.432.195-.778 0-.735-.257-1.102-.77-1.102-.508 0-.762.367-.762 1.102 0 .346.066.605.198.778.133.173.323.26.572.26zm5.313 2.813a5.508 5.508 0 0 1-.368-1.066 5.674 5.674 0 0 1-.134-1.309c0-.578.064-1.061.194-1.45.13-.39.369-.711.718-.965.348-.254.84-.435 1.478-.543.8-.124 1.356-.257 1.67-.397l.365.721c-.34.227-.919.39-1.735.487-.513.059-.898.16-1.155.304a1.18 1.18 0 0 0-.539.587c.216-.232.497-.348.843-.348.275 0 .512.077.71.23.197.154.328.386.392.694.07-.308.217-.54.438-.693.222-.154.508-.231.86-.231.491 0 .888.156 1.19.47.303.313.454.783.454 1.41 0 .4-.044.763-.134 1.09-.089.327-.214.663-.376 1.01H21.83c.157-.4.272-.756.344-1.066.073-.311.11-.64.11-.985 0-.74-.24-1.11-.722-1.11-.183 0-.33.06-.441.181-.11.122-.166.315-.166.58v1.248h-1.022V4.295c0-.265-.058-.458-.174-.58a.586.586 0 0 0-.441-.182c-.243 0-.424.09-.543.268-.12.178-.179.456-.179.834 0 .351.037.682.11.993.072.31.187.666.344 1.066h-1.046zm8.87-5.722c.411 0 .74.123.985.369.246.245.369.595.369 1.05v2.633c0 .346-.075.655-.223.928a1.55 1.55 0 0 1-.665.64c-.294.154-.647.231-1.057.231-.406 0-.755-.075-1.05-.226a1.619 1.619 0 0 1-.673-.616 1.701 1.701 0 0 1-.23-.884c0-.351.089-.683.267-.997l.94.284c-.081.184-.122.408-.122.673 0 .291.07.523.211.692.14.171.36.256.657.256.292 0 .51-.092.656-.276.146-.183.22-.446.22-.786V2.431c0-.427-.152-.64-.455-.64-.167 0-.291.051-.372.154-.082.102-.122.248-.122.437v.973h-1.005V2.317c0-.302-.121-.453-.364-.453-.054 0-.124.005-.211.016-.097.01-.17.016-.219.016a.865.865 0 0 1-.478-.13l.17-.778c.081.032.176.048.284.048.076 0 .154-.008.235-.024a6.82 6.82 0 0 1 .308-.024c.183 0 .35.056.499.17.148.113.254.297.32.55a.959.959 0 0 1 .42-.558c.2-.12.435-.179.706-.179v.001zm6.773 5.722c-.227-.535-.763-.803-1.605-.803-.627 0-1.227.14-1.8.422l-.29-.778a3.344 3.344 0 0 1 1.182-.22 6.765 6.765 0 0 1-1.03-.526 2.345 2.345 0 0 1-.724-.75c-.198-.316-.297-.706-.297-1.171 0-.632.146-1.106.438-1.423.292-.316.678-.473 1.16-.473.361 0 .647.077.858.23.21.154.351.391.421.71.054-.314.177-.549.369-.705.192-.157.442-.235.75-.235.313 0 .563.077.75.23.185.154.311.391.376.71.054-.308.187-.542.398-.701.21-.16.486-.24.826-.24.503 0 .905.162 1.208.487.302.324.454.813.454 1.467 0 .378-.054.725-.162 1.041-.108.316-.27.63-.486.944l-.916-.43a3.01 3.01 0 0 0 .324-.733c.065-.235.097-.504.097-.806 0-.438-.054-.74-.162-.908a.54.54 0 0 0-.486-.251.53.53 0 0 0-.438.19c-.103.127-.154.32-.154.58v1.231h-1.03V2.552c0-.26-.05-.453-.154-.58a.52.52 0 0 0-.429-.19.55.55 0 0 0-.445.194c-.108.13-.163.322-.163.575v1.232H31.46V2.551c0-.28-.052-.48-.158-.596-.105-.116-.253-.174-.442-.174-.432 0-.648.354-.648 1.062 0 .6.195 1.056.584 1.37.389.313.924.559 1.605.737.48.13.877.262 1.19.397.314.135.574.311.783.527.208.216.344.49.409.819h-1.134zm4.234-3.145c0-.87.172-1.517.515-1.941.343-.424.855-.636 1.536-.636.643 0 1.144.208 1.504.624.358.416.538 1.067.538 1.954a8.78 8.78 0 0 1-.158 1.778c-.105.505-.242.96-.41 1.366h-1.044a9.16 9.16 0 0 0 .38-1.447c.087-.489.13-1.05.13-1.682 0-.61-.075-1.059-.223-1.345-.149-.286-.388-.43-.717-.43-.227 0-.41.059-.547.175-.138.116-.24.304-.304.563-.065.26-.097.608-.097 1.045 0 .638.043 1.2.13 1.686.086.486.218.964.397 1.435h-1.046a7.928 7.928 0 0 1-.421-1.378 8.48 8.48 0 0 1-.162-1.766zm-35.11 7.346c.637 0 1.124.156 1.463.466.337.311.506.731.506 1.26v2.06c0 .631-.168 1.134-.503 1.507-.335.373-.821.559-1.459.559-.437 0-.807-.09-1.11-.271a1.743 1.743 0 0 1-.685-.746 2.444 2.444 0 0 1-.23-1.082c0-.367.075-.704.226-1.01.151-.305.365-.546.64-.725.276-.178.592-.267.948-.267.428 0 .795.143 1.103.43v-.543c0-.573-.295-.86-.884-.86-.265 0-.466.05-.603.147a.454.454 0 0 0-.207.389v.064l-1.03.09a.61.61 0 0 1-.032-.195c0-.243.076-.46.227-.652.151-.192.367-.343.648-.454a2.67 2.67 0 0 1 .981-.166zm0 5.042c.313 0 .541-.117.684-.349.143-.232.215-.537.215-.916v-.843a1.178 1.178 0 0 0-.892-.397.785.785 0 0 0-.652.32c-.165.213-.247.523-.247.928 0 .4.074.71.223.928.149.22.372.329.669.329zm4.842-5.042c.637 0 1.125.156 1.463.466.338.311.507.731.507 1.26v2.06c0 .631-.168 1.134-.503 1.507-.335.373-.822.559-1.46.559-.437 0-.806-.09-1.109-.271a1.74 1.74 0 0 1-.685-.746 2.444 2.444 0 0 1-.231-1.082c0-.367.076-.704.227-1.01.151-.305.364-.546.64-.725.276-.178.591-.267.948-.267.427 0 .795.143 1.103.43v-.543c0-.573-.295-.86-.884-.86-.265 0-.466.05-.603.147a.453.453 0 0 0-.207.389v.064l-1.03.09a.61.61 0 0 1-.032-.195c0-.243.076-.46.227-.652.151-.192.367-.343.648-.454.28-.11.608-.166.98-.166h.001zm0 5.042c.314 0 .542-.117.685-.349.143-.232.215-.537.215-.916v-.843a1.18 1.18 0 0 0-.892-.397.785.785 0 0 0-.652.32c-.165.213-.247.523-.247.928 0 .4.074.71.223.928.149.22.37.329.668.329zm5.248-4.92c.006.33.068.62.187.871.119.252.3.544.542.88.179.248.32.463.426.644.106.18.194.389.268.624.072.235.109.496.109.782 0 .384-.083.721-.248 1.013-.164.292-.4.517-.704.677-.305.16-.663.239-1.075.239-.41 0-.766-.078-1.069-.235a1.668 1.668 0 0 1-.697-.66 1.956 1.956 0 0 1-.243-.986c0-.426.116-.84.349-1.24l.923.317a2.16 2.16 0 0 0-.13.421c-.032.157-.048.311-.048.462 0 .34.074.61.222.807.15.197.38.295.693.295.308 0 .535-.097.681-.292.146-.194.219-.456.219-.785a2.1 2.1 0 0 0-.093-.64 2.348 2.348 0 0 0-.227-.511 8.503 8.503 0 0 0-.369-.543 7.528 7.528 0 0 1-.425-.637 2.968 2.968 0 0 1-.385-1.504h1.094zm2.752 5.6a5.509 5.509 0 0 1-.369-1.066 5.699 5.699 0 0 1-.134-1.308c0-.579.065-1.062.195-1.451.13-.39.37-.71.717-.965.349-.254.842-.434 1.48-.543.799-.124 1.356-.256 1.669-.397l.365.722c-.34.227-.919.389-1.735.486-.513.06-.898.16-1.155.304a1.183 1.183 0 0 0-.539.587c.216-.232.497-.348.843-.348.275 0 .512.077.71.231.197.154.327.385.392.693.07-.308.216-.539.438-.693.222-.154.508-.23.86-.23.491 0 .888.156 1.19.469.303.314.454.783.454 1.41 0 .4-.045.764-.133 1.09-.09.327-.215.664-.377 1.01h-1.046c.157-.4.272-.756.345-1.066.073-.31.109-.639.109-.985 0-.74-.24-1.11-.721-1.11a.57.57 0 0 0-.442.182c-.11.122-.166.315-.166.58v1.248h-1.021v-1.249c0-.264-.059-.457-.175-.58a.585.585 0 0 0-.441-.181c-.243 0-.424.089-.544.267-.118.179-.178.457-.178.835 0 .35.037.682.11.992.073.311.187.666.344 1.066h-1.045zm11.043-5.722c.573 0 1.021.207 1.345.62.324.414.486 1.058.486 1.933 0 .697-.058 1.294-.174 1.791a7.518 7.518 0 0 1-.458 1.378h-1.078a7.4 7.4 0 0 0 .458-1.434c.1-.481.15-1.046.15-1.694 0-.66-.08-1.12-.243-1.382-.161-.262-.386-.393-.672-.393-.313 0-.586.124-.82.373.169.46.253 1.048.253 1.767 0 1.037-.175 1.778-.523 2.224-.348.446-.86.669-1.536.669-.692 0-1.208-.23-1.548-.689-.34-.46-.511-1.197-.511-2.213 0-1.037.17-1.788.511-2.253.34-.464.856-.697 1.548-.697.638 0 1.118.19 1.442.567.39-.378.846-.567 1.37-.567zm-2.813 5.033c.227 0 .409-.067.544-.202.135-.135.234-.353.296-.652.062-.3.093-.707.093-1.22 0-.535-.031-.958-.093-1.269-.062-.31-.161-.533-.296-.668-.135-.135-.317-.203-.544-.203-.232 0-.414.063-.547.187-.132.124-.229.34-.291.648-.062.308-.093.74-.093 1.297 0 .54.03.96.093 1.26.062.3.16.512.296.636.135.124.316.186.543.186zm8.134-2.31c.384.066.68.218.891.459.211.24.317.552.317.936a1.642 1.642 0 0 1-.92 1.503c-.3.154-.655.231-1.065.231-.406 0-.753-.074-1.042-.223a1.579 1.579 0 0 1-.656-.596 1.578 1.578 0 0 1-.223-.826c0-.308.073-.592.219-.851l.948.26a1.6 1.6 0 0 0-.097.55c0 .26.069.47.206.628.139.16.353.24.645.24.28 0 .493-.086.636-.256.143-.17.214-.398.214-.685 0-.308-.072-.546-.218-.717-.146-.17-.365-.255-.657-.255h-.3l.138-.794h.179c.237 0 .422-.065.555-.195.132-.13.199-.318.199-.567 0-.232-.065-.418-.194-.555-.13-.138-.317-.207-.56-.207-.243 0-.43.064-.563.19-.133.128-.199.3-.199.515 0 .114.02.227.057.34l-.989.211a1.497 1.497 0 0 1-.145-.632c0-.264.076-.506.23-.725.154-.22.37-.39.648-.515.278-.124.599-.186.96-.186.368 0 .692.066.973.199.281.132.499.313.652.543.154.23.232.482.232.757 0 .314-.091.577-.272.79-.181.214-.447.359-.799.434zm3.878-2.722c.357 0 .676.067.957.202.28.135.5.33.656.584.157.254.235.556.235.908v2.35c0 .35-.073.661-.219.932-.146.27-.361.483-.648.64-.286.156-.635.235-1.045.235-.39 0-.727-.076-1.013-.227a1.616 1.616 0 0 1-.657-.616 1.71 1.71 0 0 1-.227-.875c0-.34.087-.67.26-.989l.948.284c-.08.184-.121.402-.121.657 0 .286.067.515.202.688.135.173.337.26.608.26.556 0 .835-.335.835-1.005v-2.35c0-.281-.066-.494-.2-.64-.132-.146-.322-.219-.57-.219-.25 0-.437.066-.564.198a.702.702 0 0 0-.19.507c0 .172.027.346.08.519l-.98.194a1.708 1.708 0 0 1-.187-.738c0-.291.079-.55.235-.778.157-.227.376-.404.657-.53.28-.127.597-.19.948-.19v-.001zm7.266 5.722c-.227-.535-.761-.803-1.604-.803a4.04 4.04 0 0 0-1.8.421l-.291-.778a3.341 3.341 0 0 1 1.183-.219 6.744 6.744 0 0 1-1.03-.526 2.345 2.345 0 0 1-.724-.75c-.198-.316-.296-.707-.296-1.171 0-.632.146-1.106.437-1.423.292-.316.678-.474 1.16-.474.36 0 .647.077.858.231.211.154.351.39.422.71.053-.314.176-.549.368-.706.192-.156.442-.235.75-.235.313 0 .563.077.75.231.186.154.312.39.376.71.055-.308.187-.542.398-.702.21-.159.486-.239.826-.239.503 0 .905.162 1.208.487.302.324.453.812.453 1.467 0 .377-.053.725-.162 1.04-.108.317-.27.631-.485.945l-.916-.43c.15-.254.259-.498.324-.733a3.04 3.04 0 0 0 .097-.806c0-.438-.054-.74-.162-.908a.54.54 0 0 0-.486-.252.53.53 0 0 0-.438.19c-.103.128-.154.321-.154.58v1.232h-1.03v-1.232c0-.259-.05-.452-.153-.58a.521.521 0 0 0-.43-.19.548.548 0 0 0-.445.195c-.108.13-.163.321-.163.575v1.232h-1.029v-1.232c0-.281-.052-.48-.158-.596-.105-.116-.252-.174-.442-.174-.432 0-.648.354-.648 1.062 0 .6.195 1.056.584 1.37.388.313.924.559 1.604.737.481.13.878.262 1.192.397.313.135.573.31.782.527.208.216.344.489.41.818h-1.136v.002zm4.868 0a8.03 8.03 0 0 1-.458-1.39c-.116-.495-.174-1.088-.174-1.78 0-.89.153-1.539.461-1.944.308-.405.751-.608 1.33-.608.675 0 1.102.327 1.28.98.179-.653.619-.98 1.321-.98.552 0 .98.205 1.289.616.308.41.462 1.057.462 1.937 0 .697-.058 1.294-.174 1.791-.116.497-.269.956-.458 1.378h-1.054a8.15 8.15 0 0 0 .438-1.443c.097-.48.146-1.042.146-1.685 0-.67-.065-1.135-.195-1.395-.13-.259-.321-.388-.575-.388a.585.585 0 0 0-.49.223c-.116.148-.175.377-.175.684v2.326h-1.069v-2.326c0-.6-.211-.899-.632-.899-.2 0-.358.057-.475.17-.116.113-.2.299-.25.555-.052.256-.078.609-.078 1.058 0 .648.049 1.212.146 1.693.097.481.246.957.446 1.427H47.99zm8.944-4.06c.491.096.87.331 1.134.704.265.373.397.83.397 1.37 0 .416-.078.783-.235 1.103a1.71 1.71 0 0 1-.705.745c-.313.178-.694.268-1.143.268-.675 0-1.192-.19-1.552-.572-.36-.38-.538-.898-.538-1.551 0-.568.144-1.04.433-1.415.289-.376.704-.6 1.244-.677a.879.879 0 0 0 .032-.268.445.445 0 0 0-.064-.25 1.275 1.275 0 0 0-.211-.228 1.542 1.542 0 0 1-.28-.324c-.062-.103-.093-.251-.093-.446h1.029c0 .076.022.144.065.203.043.06.11.135.203.227.124.124.218.24.284.345a.738.738 0 0 1 .096.393.837.837 0 0 1-.096.372zm-.552 3.379c.638 0 .957-.44.957-1.321 0-.438-.075-.771-.224-1.001-.148-.23-.392-.345-.733-.345-.643 0-.965.446-.965 1.338 0 .886.322 1.329.965 1.329zm2.874-2.463c0-.87.172-1.518.515-1.942.343-.424.854-.636 1.535-.636.643 0 1.144.208 1.504.624.36.416.539 1.067.539 1.954 0 .68-.053 1.273-.159 1.778a7.73 7.73 0 0 1-.409 1.366h-1.045c.167-.476.295-.958.38-1.447.087-.489.13-1.05.13-1.681 0-.61-.074-1.06-.222-1.345-.15-.287-.388-.43-.718-.43-.227 0-.409.058-.547.174-.137.116-.239.304-.304.563-.065.26-.097.608-.097 1.046 0 .637.043 1.199.13 1.685.087.486.219.965.397 1.435H59.84a7.922 7.922 0 0 1-.42-1.378 8.513 8.513 0 0 1-.162-1.766z"/></svg></svg></svg>