<svg version="1.2" xmlns="http://www.w3.org/2000/svg" viewBox="0 0 47 48" width="47" height="48">
	<style>
		.s0 { fill: #183869 } 
		.s1 { fill: #8c9ca8 } 
		.s2 { fill: #a91f23 } 
		.s3 { fill: #033669 } 
	</style>
	<g id="Group_1383">
		<g id="ლოგო">
			<path id="Path_20" fill-rule="evenodd" class="s0" d="m1.83 24.28h0.01v9.85q0 0.68 0.26 1.3 0.26 0.62 0.74 1.1 0.48 0.48 1.1 0.74 0.63 0.26 1.3 0.26h17.73v7.89q0 0.36-0.14 0.69-0.14 0.34-0.4 0.59-0.26 0.26-0.59 0.4-0.33 0.14-0.7 0.14h-19.31q-0.37 0-0.7-0.14-0.34-0.14-0.59-0.4-0.26-0.25-0.4-0.59-0.14-0.33-0.14-0.7v-19.31q0-0.36 0.14-0.7 0.14-0.33 0.4-0.59 0.25-0.25 0.59-0.39 0.33-0.14 0.7-0.14zm2.04 0h17.27q0.37 0 0.7 0.14 0.34 0.14 0.59 0.39 0.26 0.26 0.4 0.59 0.14 0.34 0.14 0.7v9.23h-17.3q-0.35 0-0.69-0.14-0.33-0.14-0.58-0.39-0.26-0.26-0.39-0.59-0.14-0.33-0.14-0.69z"/>
			<path id="Path_21" fill-rule="evenodd" class="s1" d="m33.88 24.28h11.37q0.36 0 0.7 0.14 0.33 0.14 0.59 0.39 0.25 0.26 0.39 0.59 0.14 0.34 0.14 0.7v19.32q0 0.36-0.14 0.7-0.14 0.33-0.39 0.59-0.26 0.25-0.59 0.39-0.34 0.14-0.7 0.15h-19.31q-0.37-0.01-0.7-0.15-0.34-0.14-0.59-0.39-0.26-0.26-0.4-0.59-0.14-0.34-0.14-0.7v-7.89h6.37q0.68 0 1.3-0.26 0.63-0.26 1.1-0.74 0.48-0.47 0.74-1.1 0.26-0.62 0.26-1.3zm-7.94 0h5.91v9.25q0 0.36-0.14 0.69-0.13 0.33-0.39 0.59-0.25 0.25-0.58 0.39-0.34 0.14-0.69 0.14h-5.94v-9.23q0.01-0.36 0.14-0.7 0.14-0.33 0.4-0.59 0.26-0.26 0.59-0.4 0.34-0.13 0.7-0.14z"/>
			<path id="Path_22" fill-rule="evenodd" class="s2" d="m25.94 0h19.31q0.37 0 0.7 0.14 0.34 0.14 0.59 0.4 0.26 0.25 0.4 0.59 0.14 0.33 0.14 0.7v19.31q0 0.37-0.14 0.7-0.14 0.34-0.4 0.59-0.25 0.26-0.59 0.4-0.33 0.14-0.7 0.14h-11.37v-16.64q0-0.67-0.26-1.3-0.26-0.62-0.74-1.1-0.48-0.48-1.1-0.74-0.62-0.25-1.3-0.26h-6.37v-1.1q0-0.37 0.14-0.7 0.14-0.34 0.4-0.59 0.25-0.26 0.59-0.4 0.33-0.14 0.7-0.14zm5.91 22.96h-5.91q-0.37 0-0.7-0.14-0.34-0.14-0.59-0.39-0.26-0.26-0.4-0.59-0.14-0.34-0.14-0.7v-16.01h5.93q0.36 0 0.69 0.14 0.34 0.14 0.59 0.39 0.25 0.26 0.39 0.59 0.14 0.33 0.14 0.69z"/>
		</g>
		<g id="Group_1382">
			<path id="Path_52" class="s3" d="m115.72 14.21v0.24q0 0.02 0 0.05 0 0.02-0.01 0.04-0.01 0.03-0.02 0.05-0.01 0.02-0.03 0.04c0 0.06-0.06 0.06-0.06 0.12h-4.08c-0.12 0-0.18-0.06-0.3-0.12-0.11-0.06-0.11-0.18-0.11-0.36v-8.09q0.01-0.01 0.02-0.02 0.01-0.01 0.03-0.02 0.02-0.01 0.03-0.01 0.02-0.01 0.03-0.01 0.03 0 0.05 0 0.03 0 0.05-0.01 0.03-0.01 0.05-0.02 0.02-0.01 0.03-0.03h0.6q0.03 0 0.05 0 0.03 0 0.05 0.01 0.02 0.01 0.05 0.02 0.02 0.01 0.03 0.03c0.06 0 0.06 0.06 0.12 0.06v7.49h3.24c0.06 0 0.06 0 0.12 0.06l0.06 0.06c0 0.06 0.06 0.06 0.06 0.12q-0.02 0.03-0.03 0.07-0.01 0.03-0.02 0.07-0.01 0.04-0.01 0.08 0 0.04 0 0.08zm-6.29 0.06q0.02 0.02 0.03 0.05 0.01 0.03 0.02 0.06 0.01 0.03 0.01 0.06 0 0.04 0 0.07c0 0.06 0 0.12-0.06 0.12q-0.02 0.01-0.04 0.03-0.02 0.01-0.04 0.02-0.02 0-0.05 0.01-0.02 0-0.05 0h-0.72q-0.02 0-0.05 0-0.02-0.01-0.04-0.01-0.03-0.01-0.05-0.02-0.02-0.02-0.04-0.03c-0.06 0-0.06-0.06-0.12-0.06q-0.01-0.02-0.02-0.03-0.01-0.01-0.02-0.03 0-0.01-0.01-0.03 0-0.02-0.01-0.03l-0.77-2.1h-3.72l-0.72 2.15c0 0.06-0.06 0.06-0.06 0.12q-0.01 0.02-0.02 0.03-0.02 0.01-0.03 0.01-0.02 0.01-0.04 0.02-0.01 0-0.03 0c-0.06 0-0.12 0.06-0.18 0.06h-0.6c-0.06 0-0.12-0.06-0.18-0.06-0.06 0-0.06-0.06-0.06-0.12q0-0.03 0-0.06 0.01-0.03 0.02-0.06 0-0.03 0.01-0.06 0.02-0.03 0.03-0.06l3-7.96c0-0.06 0.06-0.06 0.06-0.12 0.06-0.06 0.06-0.06 0.12-0.06q0.03 0 0.06-0.01 0.03 0 0.06-0.01 0.04 0 0.06-0.02 0.03-0.01 0.06-0.02h0.72c0.12 0 0.18 0 0.24 0.06q0.02 0 0.03 0 0.02 0.01 0.03 0.02 0.02 0 0.03 0.01 0.02 0.01 0.03 0.03c0.06 0.06 0.06 0.06 0.06 0.12zm-3.9-7.01l-1.56 4.25h3.12zm-5.39 6.95q0 0.03 0 0.06 0 0.03-0.01 0.07-0.01 0.03-0.02 0.05-0.01 0.03-0.03 0.06c-0.06 0.06-0.06 0.12-0.12 0.18q-0.02 0.02-0.04 0.03-0.02 0.01-0.04 0.02-0.03 0.01-0.05 0.01-0.02 0-0.05 0h-0.54q-0.04 0.01-0.08 0-0.03 0-0.07 0-0.04-0.01-0.08-0.03-0.03-0.01-0.07-0.03-0.03-0.01-0.06-0.02-0.04-0.01-0.07-0.02-0.03-0.02-0.06-0.04-0.02-0.02-0.05-0.04l-0.24-0.24q-0.03-0.05-0.07-0.1-0.03-0.05-0.06-0.1-0.03-0.06-0.06-0.11-0.02-0.05-0.05-0.11l-2.82-4.85c-0.12-0.24-0.3-0.54-0.42-0.78-0.18-0.3-0.3-0.54-0.42-0.78v7.13q-0.01 0.01-0.02 0.02-0.02 0.01-0.03 0.02-0.02 0.01-0.03 0.01-0.02 0.01-0.04 0.01-0.02 0-0.05 0-0.02 0-0.04 0.01-0.03 0.01-0.05 0.02-0.02 0.01-0.04 0.03h-0.6q-0.02 0-0.05 0-0.02 0-0.04-0.01-0.03-0.01-0.05-0.02-0.02-0.01-0.04-0.03-0.01 0-0.02-0.01-0.01 0-0.02-0.01-0.01-0.01-0.01-0.02-0.01-0.01-0.01-0.02v-7.97q0-0.05 0.01-0.11 0-0.05 0.03-0.1 0.02-0.04 0.06-0.08 0.04-0.04 0.08-0.07 0.04-0.02 0.09-0.04 0.04-0.02 0.09-0.04 0.04-0.01 0.09-0.02 0.05-0.01 0.09-0.02h0.54q0.05 0 0.09 0 0.05 0 0.1 0.01 0.04 0.01 0.09 0.02 0.04 0.01 0.08 0.03 0.04 0.01 0.07 0.02 0.03 0.01 0.06 0.02 0.03 0.02 0.06 0.04 0.03 0.02 0.05 0.04 0.03 0.03 0.06 0.05 0.02 0.03 0.04 0.06 0.03 0.03 0.05 0.07 0.02 0.03 0.03 0.06 0.03 0.05 0.06 0.09 0.03 0.05 0.06 0.09 0.03 0.05 0.06 0.09 0.03 0.05 0.06 0.09l2.16 3.78q0.04 0.08 0.08 0.16 0.04 0.09 0.09 0.17 0.04 0.08 0.09 0.16 0.05 0.09 0.1 0.16c0.12 0.24 0.24 0.42 0.36 0.66q0.04 0.08 0.08 0.16 0.04 0.07 0.09 0.15 0.04 0.07 0.09 0.15 0.05 0.07 0.1 0.14c0.12 0.18 0.24 0.42 0.36 0.6v-6.83q0.01-0.01 0.02-0.02 0.02-0.01 0.03-0.02 0.02-0.01 0.04-0.01 0.01-0.01 0.03-0.01c0.06 0 0.12-0.06 0.18-0.06h0.54q0.02 0 0.05 0 0.02 0 0.04 0.01 0.03 0.01 0.05 0.02 0.02 0.01 0.04 0.03 0.01 0 0.02 0.01 0.01 0 0.02 0.01 0.01 0.01 0.01 0.02 0.01 0.01 0.01 0.02v7.85zm-8.82-3.89q0.01 0.23 0 0.47-0.01 0.23-0.04 0.46-0.03 0.24-0.08 0.47-0.05 0.23-0.12 0.45-0.06 0.2-0.14 0.39-0.08 0.19-0.17 0.37-0.1 0.18-0.22 0.35-0.11 0.17-0.24 0.33-0.13 0.15-0.27 0.28-0.15 0.14-0.31 0.25-0.16 0.11-0.33 0.21-0.17 0.09-0.35 0.16-0.22 0.07-0.44 0.13-0.22 0.06-0.45 0.09-0.23 0.04-0.46 0.06-0.22 0.02-0.45 0.02-0.22 0-0.45-0.02-0.22-0.02-0.43-0.05-0.22-0.04-0.44-0.1-0.21-0.05-0.42-0.13-0.17-0.06-0.34-0.15-0.16-0.09-0.31-0.19-0.16-0.11-0.29-0.23-0.14-0.13-0.26-0.27-0.12-0.15-0.23-0.32-0.1-0.16-0.19-0.33-0.09-0.18-0.17-0.36-0.07-0.18-0.13-0.37-0.07-0.22-0.11-0.45-0.05-0.23-0.08-0.47-0.03-0.23-0.05-0.46-0.01-0.24 0-0.47 0-0.24 0.01-0.47 0.01-0.24 0.04-0.47 0.03-0.23 0.08-0.47 0.05-0.23 0.11-0.45 0.06-0.19 0.14-0.38 0.07-0.18 0.17-0.36 0.1-0.17 0.22-0.33 0.12-0.16 0.26-0.31 0.13-0.14 0.28-0.26 0.15-0.13 0.31-0.24 0.16-0.11 0.32-0.21 0.17-0.1 0.34-0.19 0.22-0.07 0.44-0.13 0.22-0.06 0.45-0.1 0.23-0.03 0.46-0.05 0.22-0.02 0.45-0.02 0.22 0 0.45 0.02 0.22 0.02 0.44 0.05 0.21 0.04 0.43 0.1 0.21 0.06 0.42 0.13 0.17 0.07 0.34 0.15 0.16 0.09 0.31 0.19 0.16 0.11 0.29 0.23 0.14 0.13 0.26 0.27 0.12 0.15 0.23 0.32 0.1 0.16 0.19 0.34 0.09 0.17 0.17 0.35 0.07 0.18 0.13 0.37 0.07 0.21 0.12 0.44 0.05 0.22 0.08 0.45 0.03 0.22 0.04 0.45 0.01 0.23-0.01 0.46zm-1.25 0.06q-0.01-0.18-0.02-0.35-0.01-0.17-0.02-0.35-0.02-0.17-0.04-0.34-0.02-0.17-0.04-0.34-0.03-0.15-0.07-0.29-0.04-0.14-0.09-0.27-0.05-0.14-0.12-0.27-0.07-0.13-0.14-0.25-0.09-0.11-0.18-0.22-0.1-0.1-0.2-0.19-0.11-0.09-0.22-0.17-0.12-0.08-0.24-0.14-0.32-0.13-0.65-0.19-0.34-0.06-0.68-0.05-0.34 0.01-0.67 0.08-0.33 0.08-0.64 0.22-0.13 0.06-0.24 0.13-0.12 0.08-0.23 0.17-0.11 0.09-0.2 0.2-0.09 0.1-0.17 0.22-0.08 0.12-0.16 0.25-0.07 0.13-0.13 0.26-0.06 0.14-0.11 0.28-0.04 0.14-0.08 0.29-0.04 0.16-0.06 0.32-0.03 0.17-0.04 0.33-0.02 0.17-0.02 0.33-0.01 0.17 0 0.34 0.01 0.17 0.01 0.34 0.01 0.17 0.03 0.35 0.01 0.17 0.03 0.34 0.03 0.17 0.05 0.34 0.03 0.15 0.07 0.29 0.04 0.14 0.09 0.27 0.05 0.14 0.12 0.27 0.06 0.13 0.14 0.25 0.08 0.12 0.17 0.22 0.1 0.11 0.2 0.2 0.11 0.09 0.23 0.17 0.11 0.07 0.24 0.13 0.32 0.13 0.65 0.19 0.34 0.06 0.68 0.05 0.34-0.01 0.67-0.08 0.33-0.08 0.64-0.22 0.13-0.06 0.24-0.13 0.12-0.08 0.23-0.17 0.1-0.09 0.2-0.2 0.09-0.1 0.17-0.22 0.08-0.12 0.16-0.25 0.07-0.13 0.13-0.26 0.06-0.14 0.11-0.28 0.04-0.14 0.08-0.29 0.03-0.16 0.06-0.32 0.03-0.17 0.04-0.33 0.02-0.17 0.02-0.33 0-0.17 0-0.33zm-8.75 4.13v0.12q-0.01 0.02-0.03 0.03-0.01 0.01-0.03 0.01-0.01 0.01-0.03 0.02-0.02 0-0.03 0-0.03 0-0.05 0-0.03 0.01-0.05 0.01-0.02 0.01-0.04 0.02-0.02 0.02-0.04 0.03h-0.6q-0.03 0.01-0.05 0-0.03 0-0.05-0.01-0.02 0-0.04-0.02-0.02-0.01-0.04-0.03c-0.06 0-0.06-0.06-0.12-0.06v-8.33c0-0.06 0-0.06 0.06-0.12q0.01-0.01 0.02-0.02 0.02-0.01 0.03-0.02 0.02-0.01 0.04-0.01 0.01-0.01 0.03-0.01 0.02 0 0.05 0 0.02 0 0.05-0.01 0.02-0.01 0.04-0.02 0.02-0.01 0.04-0.03h0.6q0.02 0 0.05 0 0.02 0 0.04 0.01 0.03 0.01 0.05 0.02 0.02 0.01 0.04 0.03c0.06 0 0.06 0.06 0.12 0.06v8.33zm-2.64-7.91v0.24c0 0.06 0 0.12-0.06 0.12q0 0.01 0 0.02-0.01 0.01-0.01 0.02-0.01 0.01-0.02 0.01-0.01 0.01-0.03 0.01h-2.63v7.6q-0.01 0.02-0.03 0.03-0.01 0.01-0.03 0.01-0.01 0.01-0.03 0.02-0.02 0-0.03 0-0.03 0-0.05 0-0.03 0.01-0.05 0.01-0.02 0.01-0.04 0.02-0.02 0.02-0.04 0.03h-0.6q-0.03 0.01-0.05 0-0.03 0-0.05-0.01-0.02 0-0.04-0.02-0.02-0.01-0.04-0.03c-0.06 0-0.06-0.06-0.12-0.06v-7.54h-2.64q-0.01 0-0.02-0.01-0.01 0-0.02-0.01-0.01-0.01-0.01-0.02-0.01-0.01-0.01-0.02c0-0.06-0.06-0.06-0.06-0.12v-0.48q0-0.03 0-0.05 0-0.03 0.01-0.05 0.01-0.02 0.02-0.04 0.01-0.03 0.03-0.04 0-0.02 0.01-0.03 0-0.01 0.01-0.02 0.01 0 0.02-0.01 0.01 0 0.02 0h6.47l0.06 0.06c0 0.06 0.06 0.12 0.06 0.18zm-6.17 7.67q0.02 0.02 0.03 0.05 0.01 0.03 0.02 0.06 0.01 0.03 0.01 0.06 0 0.03 0 0.06c0 0.06 0 0.12-0.06 0.12q-0.02 0.02-0.04 0.03-0.02 0.02-0.04 0.03-0.03 0-0.05 0.01-0.02 0-0.05-0.01h-0.72q-0.02 0.01-0.05 0.01-0.02-0.01-0.04-0.01-0.03-0.01-0.05-0.03-0.02-0.01-0.04-0.03c-0.06 0-0.06-0.06-0.12-0.06q-0.01-0.01-0.02-0.02-0.01-0.01-0.02-0.03 0-0.02-0.01-0.03 0-0.02-0.01-0.04l-0.78-2.09h-3.71l-0.72 2.03c0 0.06-0.06 0.06-0.06 0.12q-0.01 0.02-0.03 0.03-0.01 0.01-0.02 0.01-0.02 0.01-0.04 0.02-0.01 0-0.03 0c-0.06 0-0.12 0.06-0.18 0.06h-0.6c-0.06 0-0.12-0.06-0.18-0.06-0.06 0-0.06-0.06-0.06-0.12q0-0.03 0-0.06 0.01-0.03 0.01-0.06 0.01-0.03 0.02-0.06 0.02-0.03 0.03-0.06l3-7.97c0-0.06 0.06-0.06 0.06-0.12 0.06-0.06 0.06-0.06 0.12-0.06q0.03 0.01 0.06 0 0.03 0 0.06-0.01 0.03-0.01 0.06-0.02 0.03-0.01 0.06-0.03h0.72c0.12 0 0.18 0 0.24 0.06q0.02 0.01 0.03 0.01 0.02 0.01 0.03 0.01 0.02 0.01 0.03 0.02 0.02 0.01 0.03 0.02c0.06 0.06 0.06 0.06 0.06 0.12zm-3.84-7.01l-1.55 4.26h3.11zm-5.39 6.95q0 0.03 0 0.06 0 0.03-0.01 0.06-0.01 0.03-0.02 0.06-0.01 0.03-0.03 0.06c-0.06 0.06-0.06 0.12-0.12 0.18q-0.02 0.02-0.04 0.03-0.02 0.01-0.04 0.02-0.03 0.01-0.05 0.01-0.03 0-0.05 0h-0.54q-0.04 0-0.08 0-0.04 0-0.07-0.01-0.04 0-0.08-0.02-0.04-0.01-0.07-0.03-0.03 0-0.07-0.01-0.03-0.01-0.06-0.02-0.03-0.02-0.06-0.04-0.03-0.02-0.05-0.05l-0.24-0.24q-0.03-0.05-0.07-0.1-0.03-0.05-0.06-0.11-0.03-0.05-0.06-0.1-0.02-0.06-0.05-0.11l-2.81-4.85c-0.12-0.24-0.3-0.54-0.42-0.78-0.18-0.3-0.3-0.54-0.42-0.78v7.13q-0.02 0.01-0.03 0.02-0.01 0.01-0.03 0.02-0.01 0-0.03 0.01-0.02 0-0.03 0.01-0.03-0.01-0.05 0-0.03 0-0.05 0.01-0.02 0-0.04 0.02-0.03 0.01-0.04 0.03h-0.6q-0.03 0-0.05 0-0.03 0-0.05-0.01-0.02-0.01-0.04-0.02-0.03-0.02-0.04-0.03-0.02 0-0.03-0.01-0.01 0-0.02-0.01 0-0.01-0.01-0.02 0-0.01 0-0.02v-7.97q-0.01-0.05 0-0.11 0.01-0.05 0.03-0.1 0.03-0.05 0.06-0.09 0.04-0.03 0.09-0.06 0.04-0.03 0.08-0.05 0.04-0.02 0.09-0.03 0.05-0.02 0.09-0.03 0.05-0.01 0.1-0.01h0.54q0.04 0 0.09 0 0.04 0 0.09 0.01 0.04 0.01 0.09 0.02 0.04 0.01 0.09 0.03 0.03 0 0.06 0.02 0.03 0.01 0.06 0.02 0.03 0.02 0.06 0.04 0.03 0.02 0.06 0.04 0.02 0.02 0.05 0.05 0.02 0.03 0.05 0.06 0.02 0.03 0.04 0.06 0.02 0.04 0.04 0.07 0.02 0.05 0.05 0.09 0.03 0.05 0.06 0.09 0.03 0.05 0.06 0.09 0.03 0.05 0.06 0.09l2.16 3.77q0.04 0.09 0.09 0.17 0.04 0.09 0.08 0.17 0.05 0.08 0.1 0.16 0.04 0.08 0.09 0.16c0.12 0.24 0.24 0.42 0.36 0.66q0.04 0.08 0.08 0.16 0.05 0.07 0.09 0.15 0.05 0.07 0.09 0.15 0.05 0.07 0.1 0.14c0.12 0.18 0.24 0.42 0.36 0.6v-6.83q0.01-0.01 0.03-0.02 0.01-0.01 0.03-0.02 0.01-0.01 0.03-0.01 0.01-0.01 0.03-0.01c0.06 0 0.12-0.06 0.18-0.06h0.54q0.03 0 0.05 0 0.02 0 0.05 0.01 0.02 0.01 0.04 0.02 0.02 0.01 0.04 0.03 0.01 0 0.02 0 0.01 0.01 0.02 0.02 0.01 0.01 0.02 0.02 0 0.01 0 0.02v7.85z"/>
			<path id="Path_53" class="s3" d="m123.15 19.66v0.24c0 0.06 0 0.12-0.06 0.12q0 0.01-0.01 0.02 0 0.01-0.01 0.02-0.01 0.01-0.02 0.01-0.01 0.01-0.02 0.01h-3.42v2.94h3.24q0.01 0 0.02 0 0.01 0 0.02 0.01 0.01 0.01 0.01 0.02 0.01 0.01 0.01 0.03c0 0.06 0.06 0.06 0.06 0.12v0.47c0 0.06 0 0.12-0.06 0.12q0 0.02-0.01 0.03 0 0.01-0.01 0.02-0.01 0.01-0.02 0.01-0.01 0-0.02 0h-3.24v3.78q-0.01 0.01-0.02 0.02-0.02 0.01-0.03 0.02-0.02 0-0.03 0.01-0.02 0-0.04 0.01-0.02-0.01-0.05 0-0.02 0-0.04 0.01-0.03 0-0.05 0.02-0.02 0.01-0.04 0.03h-0.6q-0.02 0-0.05 0-0.02 0-0.04-0.01-0.03-0.01-0.05-0.02-0.02-0.02-0.04-0.03c-0.06 0-0.06-0.06-0.12-0.06v-7.97q0-0.05 0.01-0.1 0-0.05 0.02-0.09 0.01-0.05 0.04-0.09 0.02-0.04 0.05-0.08c0.12-0.06 0.18-0.12 0.3-0.12h4.13q0.02 0 0.03 0 0.01 0.01 0.02 0.02 0.01 0.01 0.01 0.02 0 0.01 0 0.02c0 0.06 0.06 0.12 0.06 0.18q0.02 0.03 0.03 0.06 0.01 0.02 0.02 0.06 0.01 0.03 0.01 0.06 0 0.03 0.01 0.06zm-6.78 3.71q0.01 0.24 0 0.47-0.01 0.24-0.04 0.47-0.03 0.24-0.08 0.47-0.05 0.23-0.12 0.45-0.06 0.2-0.14 0.39-0.08 0.19-0.17 0.37-0.1 0.18-0.22 0.35-0.11 0.17-0.24 0.33-0.13 0.15-0.27 0.28-0.15 0.14-0.31 0.25-0.15 0.11-0.33 0.21-0.17 0.09-0.35 0.16-0.22 0.07-0.44 0.13-0.22 0.05-0.45 0.09-0.23 0.04-0.45 0.06-0.23 0.02-0.46 0.02-0.22 0-0.44-0.02-0.23-0.02-0.44-0.05-0.22-0.04-0.44-0.1-0.21-0.06-0.42-0.13-0.17-0.07-0.34-0.15-0.16-0.09-0.31-0.19-0.16-0.11-0.29-0.23-0.14-0.13-0.26-0.27-0.12-0.15-0.23-0.32-0.1-0.16-0.19-0.34-0.09-0.17-0.17-0.35-0.07-0.18-0.13-0.37-0.07-0.22-0.11-0.45-0.05-0.23-0.08-0.47-0.03-0.23-0.04-0.46-0.02-0.24-0.01-0.47 0-0.24 0.01-0.47 0.01-0.24 0.04-0.47 0.03-0.24 0.08-0.47 0.05-0.23 0.11-0.45 0.06-0.19 0.14-0.38 0.08-0.18 0.17-0.36 0.1-0.17 0.22-0.33 0.12-0.16 0.26-0.31 0.14-0.14 0.28-0.26 0.15-0.13 0.31-0.24 0.16-0.11 0.33-0.21 0.16-0.1 0.34-0.19 0.21-0.08 0.44-0.13 0.22-0.06 0.44-0.1 0.23-0.04 0.46-0.05 0.23-0.02 0.46-0.02 0.22 0 0.44 0.02 0.22 0.01 0.44 0.05 0.22 0.04 0.43 0.1 0.22 0.05 0.42 0.13 0.18 0.06 0.34 0.15 0.17 0.09 0.32 0.19 0.15 0.11 0.29 0.23 0.13 0.13 0.25 0.27 0.12 0.15 0.23 0.32 0.11 0.16 0.2 0.33 0.09 0.18 0.16 0.36 0.08 0.18 0.13 0.37 0.07 0.21 0.12 0.44 0.05 0.22 0.08 0.44 0.03 0.23 0.04 0.46 0.01 0.23-0.01 0.45zm-1.25 0.06q-0.01-0.17-0.02-0.34 0-0.17-0.02-0.35-0.01-0.17-0.04-0.34-0.02-0.17-0.04-0.34-0.03-0.15-0.07-0.29-0.04-0.14-0.09-0.27-0.05-0.14-0.12-0.27-0.07-0.13-0.14-0.25-0.09-0.11-0.18-0.22-0.1-0.1-0.2-0.19-0.11-0.09-0.22-0.17-0.12-0.08-0.24-0.14-0.32-0.13-0.65-0.19-0.34-0.06-0.68-0.05-0.34 0.01-0.67 0.08-0.33 0.08-0.64 0.22-0.13 0.06-0.24 0.13-0.12 0.08-0.23 0.17-0.11 0.09-0.2 0.2-0.09 0.1-0.17 0.22-0.08 0.12-0.16 0.25-0.07 0.13-0.13 0.26-0.06 0.14-0.11 0.28-0.04 0.14-0.08 0.29-0.03 0.16-0.06 0.32-0.03 0.17-0.04 0.33-0.02 0.17-0.02 0.33 0 0.17 0 0.33 0.01 0.18 0.02 0.35 0 0.17 0.02 0.35 0.01 0.17 0.04 0.34 0.02 0.17 0.04 0.34 0.03 0.15 0.07 0.29 0.04 0.14 0.09 0.27 0.05 0.14 0.12 0.27 0.06 0.13 0.14 0.25 0.08 0.12 0.17 0.22 0.1 0.11 0.2 0.2 0.11 0.09 0.23 0.17 0.11 0.07 0.24 0.13 0.32 0.13 0.65 0.19 0.34 0.06 0.68 0.05 0.34-0.01 0.67-0.08 0.33-0.08 0.64-0.22 0.13-0.06 0.24-0.13 0.12-0.08 0.23-0.17 0.1-0.09 0.2-0.2 0.09-0.1 0.17-0.22 0.08-0.12 0.16-0.25 0.07-0.13 0.13-0.26 0.06-0.14 0.11-0.28 0.04-0.14 0.08-0.29 0.02-0.16 0.05-0.33 0.02-0.16 0.03-0.33 0.02-0.16 0.03-0.33 0.01-0.16 0.01-0.33zm-11.81 1.14q0.01 0.18 0 0.36-0.01 0.17-0.04 0.35-0.03 0.17-0.08 0.34-0.05 0.17-0.12 0.33-0.05 0.15-0.11 0.28-0.07 0.14-0.15 0.27-0.09 0.13-0.19 0.25-0.09 0.12-0.21 0.22-0.11 0.11-0.24 0.2-0.13 0.1-0.26 0.18-0.14 0.09-0.28 0.15-0.14 0.07-0.29 0.13-0.34 0.11-0.7 0.17-0.35 0.06-0.71 0.07-0.36 0.01-0.71-0.04-0.36-0.04-0.7-0.14-0.14-0.04-0.28-0.1-0.14-0.06-0.27-0.14-0.13-0.07-0.24-0.16-0.12-0.1-0.23-0.2-0.12-0.1-0.22-0.21-0.1-0.12-0.19-0.25-0.08-0.13-0.14-0.27-0.07-0.14-0.11-0.29-0.06-0.16-0.11-0.33-0.05-0.17-0.08-0.35-0.03-0.17-0.04-0.35-0.01-0.17-0.01-0.35v-5.45q0.01-0.01 0.03-0.02 0.01-0.01 0.03-0.02 0.01-0.01 0.03-0.01 0.02-0.01 0.03-0.01 0.03 0 0.05 0 0.03 0 0.05-0.01 0.02-0.01 0.04-0.02 0.02-0.01 0.04-0.03h0.6q0.03 0 0.05 0 0.03 0 0.05 0.01 0.02 0.01 0.04 0.02 0.02 0.01 0.04 0.03c0.06 0 0.06 0.06 0.12 0.06v5.27q0 0.13 0.01 0.26 0.01 0.13 0.03 0.26 0.02 0.13 0.06 0.25 0.03 0.13 0.08 0.25 0.04 0.1 0.08 0.2 0.04 0.09 0.1 0.18 0.05 0.09 0.11 0.18 0.06 0.08 0.13 0.16 0.07 0.08 0.16 0.14 0.08 0.07 0.17 0.12 0.09 0.06 0.19 0.1 0.1 0.03 0.2 0.06 0.11 0.04 0.22 0.06 0.11 0.03 0.22 0.04 0.12 0.02 0.23 0.02 0.12 0.01 0.23 0 0.11 0 0.23-0.01 0.11-0.01 0.22-0.02 0.12-0.02 0.23-0.04 0.11-0.02 0.22-0.05 0.09-0.04 0.18-0.09 0.08-0.04 0.17-0.09 0.08-0.06 0.16-0.12 0.08-0.06 0.15-0.12 0.08-0.07 0.14-0.16 0.07-0.08 0.12-0.17 0.06-0.09 0.09-0.19 0.04-0.1 0.07-0.2 0.04-0.12 0.07-0.25 0.02-0.12 0.04-0.25 0.01-0.13 0.02-0.26 0-0.13-0.01-0.26v-5.33q0.01-0.01 0.02-0.02 0.02-0.01 0.03-0.02 0.02-0.01 0.04-0.01 0.01-0.01 0.03-0.01 0.02 0 0.05 0 0.02 0 0.05-0.01 0.02-0.01 0.04-0.02 0.02-0.01 0.04-0.03h0.6q0.02 0 0.05 0 0.02 0 0.05 0.01 0.02 0.01 0.04 0.02 0.02 0.01 0.04 0.03c0.06 0 0.06 0.06 0.12 0.06q0.01 0.01 0.02 0.03 0.01 0.01 0.02 0.02 0.01 0.02 0.01 0.04 0.01 0.01 0.01 0.03v5.27zm-8.14 2.76q0.01 0.02 0.02 0.05 0.02 0.03 0.02 0.06 0.01 0.03 0.02 0.06 0 0.03 0 0.07c0 0.06 0 0.12-0.06 0.12q-0.02 0.01-0.04 0.03-0.02 0.01-0.05 0.02-0.02 0-0.04 0.01-0.03 0-0.05 0h-0.72q-0.03 0-0.05 0-0.03-0.01-0.05-0.01-0.02-0.01-0.04-0.02-0.02-0.02-0.04-0.03c-0.06 0-0.06-0.06-0.12-0.06q-0.01-0.02-0.02-0.03-0.01-0.01-0.02-0.03-0.01-0.01-0.01-0.03-0.01-0.02-0.01-0.03l-0.78-2.1h-3.72l-0.71 2.03c0 0.06-0.06 0.06-0.06 0.12q-0.02 0.02-0.03 0.03-0.01 0.01-0.03 0.01-0.01 0.01-0.03 0.02-0.02 0-0.03 0c-0.06 0-0.12 0.06-0.18 0.06h-0.6c-0.06 0-0.12-0.06-0.18-0.06-0.06 0-0.06-0.06-0.06-0.12q-0.01-0.03 0-0.06 0-0.03 0.01-0.06 0.01-0.03 0.02-0.06 0.01-0.03 0.03-0.06l2.99-7.96c0-0.06 0.06-0.06 0.06-0.12 0.06-0.06 0.06-0.06 0.12-0.06q0.04 0 0.07-0.01 0.03 0 0.06-0.01 0.03-0.01 0.06-0.02 0.03-0.01 0.05-0.02h0.72c0.12 0 0.18 0 0.24 0.06q0.02 0 0.04 0 0.01 0.01 0.03 0.02 0.01 0 0.03 0.01 0.01 0.01 0.02 0.03c0.06 0.06 0.06 0.06 0.06 0.12zm-3.9-7.01l-1.55 4.25h3.11zm-4.79 6.95v0.18c0 0.06 0 0.12-0.06 0.12q0 0.01 0 0.02-0.01 0.01-0.01 0.02-0.01 0.01-0.02 0.01-0.01 0.01-0.03 0.01h-4.43c-0.12 0-0.18-0.06-0.3-0.12-0.12-0.06-0.12-0.18-0.12-0.36v-7.49q0-0.05 0-0.1 0.01-0.04 0.02-0.09 0.02-0.05 0.04-0.09 0.03-0.04 0.06-0.08c0.12-0.06 0.18-0.12 0.3-0.12h4.37l0.06 0.06c0 0.06 0.06 0.06 0.06 0.12v0.42c0 0.06 0 0.12-0.06 0.12q0 0.01 0 0.02-0.01 0.01-0.01 0.02-0.01 0.01-0.02 0.02-0.01 0-0.03 0h-3.6v2.7h3c0.06 0 0.06 0 0.12 0.06l0.06 0.06c0 0.06 0.06 0.06 0.06 0.12v0.42c0 0.06 0 0.12-0.06 0.12q0 0.01 0 0.02-0.01 0.01-0.01 0.02-0.01 0.01-0.02 0.02-0.01 0-0.03 0h-3.12v3.06h3.66q0.01 0 0.02 0 0.01 0 0.02 0.01 0.01 0.01 0.02 0.02 0 0.01 0 0.03c0 0.06 0.06 0.06 0.06 0.12zm-6.83 0.3v0.12l-0.06 0.06c-0.06 0-0.12 0.06-0.18 0.06h-0.66q-0.02 0-0.05 0-0.02-0.01-0.04-0.01-0.03-0.01-0.05-0.02-0.02-0.02-0.04-0.03c-0.06 0-0.06-0.06-0.12-0.06 0-0.06-0.06-0.06-0.06-0.12l-0.84-2.04c-0.12-0.24-0.18-0.42-0.3-0.66q-0.04-0.06-0.08-0.13-0.04-0.06-0.08-0.12-0.05-0.06-0.1-0.12-0.05-0.05-0.1-0.11-0.05-0.05-0.1-0.09-0.06-0.05-0.12-0.09-0.06-0.03-0.12-0.06-0.07-0.04-0.13-0.06-0.09-0.03-0.18-0.05-0.09-0.02-0.18-0.04-0.09-0.01-0.18-0.02-0.09-0.01-0.18-0.01h-0.78v3.6c0 0.06 0 0.06-0.06 0.12q-0.01 0.01-0.03 0.02-0.01 0.01-0.03 0.02-0.01 0.01-0.03 0.01-0.02 0.01-0.03 0.01-0.03 0-0.05 0-0.03 0-0.05 0.01-0.02 0.01-0.04 0.02-0.02 0.01-0.04 0.03h-0.6q-0.03 0-0.05 0-0.03 0-0.05-0.01-0.02-0.01-0.04-0.02-0.02-0.01-0.04-0.03c-0.06 0-0.06-0.06-0.12-0.06v-8.03q0-0.05 0-0.1 0.01-0.05 0.02-0.1 0.02-0.04 0.04-0.08 0.03-0.05 0.06-0.08c0.12-0.06 0.18-0.12 0.3-0.12h2.45q0.06-0.01 0.11 0 0.05 0 0.11 0 0.05 0.01 0.1 0.03 0.05 0.01 0.1 0.03 0.12 0.01 0.24 0.03 0.12 0.02 0.23 0.06 0.12 0.04 0.22 0.09 0.11 0.05 0.21 0.12 0.09 0.04 0.18 0.1 0.09 0.05 0.17 0.11 0.08 0.06 0.16 0.13 0.08 0.06 0.15 0.14 0.07 0.07 0.13 0.15 0.06 0.08 0.11 0.16 0.05 0.08 0.1 0.17 0.04 0.08 0.08 0.17 0.03 0.11 0.05 0.21 0.02 0.1 0.04 0.21 0.01 0.11 0.02 0.21 0.01 0.11 0.01 0.21 0 0.1-0.01 0.2-0.01 0.1-0.02 0.2-0.02 0.09-0.04 0.19-0.02 0.1-0.05 0.19-0.02 0.09-0.05 0.17-0.04 0.08-0.08 0.16-0.05 0.07-0.11 0.14-0.05 0.07-0.12 0.13c-0.18 0.18-0.36 0.3-0.54 0.48q-0.08 0.05-0.17 0.1-0.08 0.04-0.17 0.08-0.09 0.04-0.19 0.07-0.09 0.03-0.18 0.05 0.05 0.02 0.11 0.05 0.05 0.02 0.1 0.05 0.06 0.03 0.11 0.07 0.05 0.03 0.1 0.07 0.05 0.04 0.09 0.08 0.05 0.04 0.1 0.09 0.04 0.04 0.08 0.09 0.05 0.05 0.08 0.1 0.05 0.06 0.09 0.12 0.04 0.05 0.08 0.11 0.03 0.06 0.07 0.12 0.03 0.07 0.06 0.13 0.05 0.07 0.09 0.15 0.04 0.07 0.07 0.14 0.04 0.08 0.08 0.16 0.03 0.07 0.06 0.15l0.78 1.86q0.02 0.04 0.04 0.08 0.02 0.05 0.03 0.09 0.02 0.05 0.03 0.09 0.01 0.05 0.02 0.1 0.07-0.1 0.06 0zm-1.8-6q0.01-0.11 0-0.22-0.01-0.11-0.04-0.22-0.03-0.1-0.08-0.2-0.05-0.1-0.12-0.19-0.07-0.1-0.15-0.18-0.09-0.08-0.19-0.14-0.1-0.06-0.21-0.11-0.11-0.04-0.23-0.05-0.05-0.02-0.1-0.04-0.05-0.01-0.1-0.02-0.06-0.01-0.11-0.01-0.05 0-0.11 0.01h-1.55v2.87h1.13q0.11 0 0.22-0.01 0.1-0.01 0.21-0.02 0.1-0.02 0.21-0.04 0.1-0.02 0.2-0.05 0.08-0.02 0.16-0.05 0.08-0.03 0.16-0.07 0.07-0.04 0.14-0.08 0.08-0.05 0.14-0.1 0.06-0.05 0.11-0.1 0.05-0.06 0.1-0.12 0.04-0.06 0.08-0.12 0.04-0.07 0.07-0.14c0-0.24 0.06-0.41 0.06-0.6zm-6.71 3q0.01 0.17 0 0.35-0.01 0.17-0.04 0.35-0.03 0.17-0.08 0.34-0.05 0.17-0.12 0.33-0.05 0.15-0.11 0.29-0.07 0.13-0.15 0.26-0.09 0.13-0.18 0.25-0.1 0.12-0.21 0.22-0.12 0.11-0.25 0.21-0.13 0.09-0.26 0.17-0.14 0.09-0.28 0.16-0.14 0.07-0.29 0.12-0.34 0.11-0.7 0.17-0.35 0.06-0.71 0.07-0.35 0.01-0.71-0.04-0.36-0.04-0.7-0.14-0.14-0.04-0.28-0.1-0.14-0.06-0.27-0.14-0.12-0.07-0.24-0.16-0.12-0.09-0.23-0.2-0.12-0.1-0.22-0.21-0.1-0.12-0.19-0.25-0.08-0.13-0.14-0.27-0.07-0.14-0.11-0.29-0.06-0.16-0.11-0.33-0.05-0.17-0.08-0.34-0.03-0.18-0.04-0.35-0.01-0.18-0.01-0.35v-5.45q0.01-0.02 0.03-0.03 0.01-0.01 0.03-0.01 0.01-0.01 0.03-0.02 0.02 0 0.03 0 0.03 0 0.05 0 0.03-0.01 0.05-0.01 0.02-0.01 0.04-0.02 0.03-0.02 0.04-0.03h0.6q0.03-0.01 0.05 0 0.03 0 0.05 0.01 0.02 0 0.04 0.02 0.02 0.01 0.04 0.03c0.06 0 0.06 0.06 0.12 0.06v5.27q0 0.13 0.01 0.26 0.01 0.13 0.03 0.26 0.02 0.13 0.06 0.25 0.03 0.13 0.08 0.25 0.04 0.1 0.08 0.19 0.04 0.1 0.1 0.19 0.05 0.09 0.11 0.17 0.06 0.09 0.13 0.17 0.07 0.07 0.16 0.14 0.08 0.07 0.17 0.12 0.09 0.05 0.19 0.09 0.1 0.04 0.2 0.07 0.11 0.03 0.22 0.06 0.11 0.03 0.23 0.04 0.11 0.02 0.22 0.02 0.12 0 0.23 0 0.11 0 0.23-0.01 0.11-0.01 0.22-0.03 0.12-0.01 0.23-0.03 0.11-0.02 0.22-0.05 0.09-0.04 0.18-0.09 0.08-0.04 0.17-0.1 0.08-0.05 0.16-0.11 0.08-0.06 0.15-0.12 0.08-0.08 0.14-0.16 0.07-0.08 0.12-0.17 0.06-0.09 0.1-0.19 0.03-0.1 0.06-0.2 0.04-0.12 0.07-0.25 0.02-0.13 0.04-0.26 0.01-0.12 0.02-0.25 0-0.13-0.01-0.26v-5.33q0.01-0.02 0.03-0.03 0.01-0.01 0.02-0.01 0.02-0.01 0.04-0.02 0.01 0 0.03 0 0.02 0 0.05 0 0.02-0.01 0.05-0.01 0.02-0.01 0.04-0.02 0.02-0.02 0.04-0.03h0.6q0.02-0.01 0.05 0 0.02 0 0.05 0.01 0.02 0 0.04 0.02 0.02 0.01 0.04 0.03c0.06 0 0.06 0.06 0.12 0.06q0.01 0.01 0.02 0.02 0.01 0.02 0.02 0.03 0.01 0.02 0.01 0.03 0.01 0.02 0.01 0.04v5.27zm-8.69 0.71q0 0.1-0.01 0.19-0.01 0.09-0.02 0.18-0.02 0.09-0.04 0.18-0.02 0.09-0.05 0.17-0.02 0.08-0.05 0.16-0.03 0.08-0.07 0.16-0.04 0.07-0.08 0.14-0.05 0.08-0.1 0.14-0.04 0.07-0.1 0.14-0.05 0.06-0.11 0.12-0.06 0.06-0.13 0.12-0.06 0.05-0.14 0.1-0.07 0.05-0.14 0.1-0.07 0.05-0.15 0.09-0.07 0.05-0.15 0.09-0.08 0.04-0.16 0.08-0.08 0.04-0.17 0.08-0.08 0.03-0.17 0.05-0.09 0.03-0.19 0.04-0.09 0.01-0.18 0.01-0.12 0.02-0.23 0.04-0.11 0.01-0.22 0.02-0.11 0-0.23 0.01-0.11 0-0.22-0.01h-2.35c-0.12 0-0.18-0.06-0.3-0.12-0.12-0.06-0.12-0.18-0.12-0.36v-7.54q0-0.05 0.01-0.1 0-0.05 0.02-0.09 0.01-0.05 0.04-0.09 0.02-0.04 0.05-0.08c0.12-0.06 0.18-0.12 0.3-0.12h2.04q0.17 0 0.33 0.01 0.17 0.01 0.33 0.02 0.17 0.02 0.33 0.04 0.17 0.02 0.33 0.05 0.11 0.03 0.22 0.08 0.11 0.04 0.22 0.09 0.1 0.06 0.2 0.12 0.1 0.06 0.2 0.13 0.08 0.07 0.16 0.14 0.08 0.07 0.14 0.16 0.07 0.08 0.13 0.17 0.06 0.09 0.11 0.19 0.04 0.1 0.08 0.21 0.03 0.12 0.05 0.23 0.03 0.11 0.04 0.23 0.01 0.11 0.01 0.23 0 0.07 0 0.15 0 0.07-0.01 0.15-0.01 0.08-0.02 0.15-0.02 0.07-0.03 0.15-0.02 0.07-0.05 0.14-0.03 0.07-0.06 0.14-0.03 0.06-0.06 0.13-0.04 0.06-0.07 0.13-0.04 0.05-0.09 0.11-0.04 0.05-0.08 0.11-0.05 0.05-0.1 0.1-0.04 0.05-0.09 0.1-0.06 0.05-0.12 0.1-0.07 0.05-0.13 0.08-0.07 0.04-0.14 0.07-0.08 0.03-0.15 0.05 0.08 0.01 0.17 0.04 0.08 0.02 0.17 0.05 0.08 0.03 0.16 0.07 0.08 0.03 0.16 0.08 0.08 0.03 0.15 0.07 0.07 0.05 0.14 0.1 0.07 0.05 0.13 0.12 0.06 0.06 0.11 0.13 0.07 0.06 0.13 0.14 0.05 0.08 0.1 0.16 0.04 0.09 0.08 0.17 0.03 0.09 0.05 0.19 0.05 0.09 0.08 0.2 0.03 0.1 0.06 0.2 0.02 0.11 0.03 0.22 0.01 0.1 0.01 0.21zm-1.8-3.83c0-0.18-0.06-0.42-0.06-0.54q-0.02-0.06-0.05-0.12-0.03-0.06-0.07-0.11-0.04-0.05-0.08-0.1-0.05-0.05-0.09-0.09-0.06-0.05-0.11-0.08-0.06-0.04-0.12-0.07-0.06-0.03-0.12-0.05-0.07-0.03-0.13-0.04-0.11-0.03-0.21-0.06-0.1-0.02-0.21-0.03-0.1-0.02-0.21-0.03-0.11 0-0.21 0h-1.26v2.75h1.38q0.09 0 0.18 0 0.09-0.01 0.18-0.03 0.09-0.01 0.18-0.03 0.09-0.03 0.18-0.06 0.13-0.04 0.25-0.12 0.12-0.07 0.22-0.18 0.11-0.1 0.18-0.22 0.08-0.12 0.12-0.26c0-0.17 0.06-0.35 0.06-0.52zm0.54 3.89q-0.01-0.08-0.01-0.16-0.01-0.09-0.03-0.17-0.01-0.08-0.03-0.16-0.03-0.08-0.05-0.16-0.03-0.08-0.06-0.14-0.04-0.07-0.08-0.13-0.05-0.06-0.1-0.12-0.06-0.05-0.12-0.09-0.07-0.05-0.14-0.1-0.07-0.04-0.15-0.08-0.07-0.04-0.15-0.07-0.08-0.03-0.16-0.05-0.12-0.03-0.24-0.06-0.12-0.02-0.24-0.03-0.12-0.02-0.24-0.03-0.12 0-0.24 0h-1.44v3h1.74q0.09 0 0.18-0.01 0.09-0.01 0.18-0.02 0.09-0.02 0.18-0.04 0.09-0.02 0.18-0.05 0.07-0.03 0.14-0.07 0.07-0.03 0.14-0.07 0.06-0.03 0.13-0.08 0.06-0.04 0.13-0.08 0.06-0.05 0.11-0.1 0.06-0.05 0.11-0.11 0.04-0.06 0.08-0.13 0.03-0.07 0.06-0.14 0.03-0.06 0.05-0.13 0.03-0.07 0.04-0.13 0.02-0.07 0.02-0.14 0-0.07 0.01-0.15z"/>
			<path id="Path_54" class="s3" d="m145.86 32.78v0.24c0 0.06 0 0.12-0.06 0.12q0 0.01-0.01 0.02 0 0.01-0.01 0.02-0.01 0.01-0.02 0.02-0.01 0-0.02 0h-2.64v7.61q-0.01 0.01-0.02 0.02-0.02 0.01-0.03 0.02-0.02 0.01-0.03 0.01-0.02 0.01-0.04 0.01-0.02 0-0.05 0-0.02 0-0.04 0.01-0.03 0.01-0.05 0.02-0.02 0.01-0.04 0.03h-0.6q-0.02 0-0.05 0-0.02 0-0.04-0.01-0.03-0.01-0.05-0.02-0.02-0.01-0.04-0.03c-0.06 0-0.06-0.06-0.12-0.06v-7.55h-2.63q-0.02 0-0.03 0-0.01-0.01-0.02-0.02-0.01-0.01-0.01-0.02 0-0.01 0-0.02c0-0.06-0.06-0.06-0.06-0.12v-0.48q-0.01-0.02 0-0.05 0-0.02 0.01-0.05 0-0.02 0.02-0.04 0.01-0.02 0.03-0.04 0-0.01 0-0.02 0-0.01 0.01-0.02 0.01-0.01 0.02-0.02 0.01 0 0.03 0h6.53l0.06 0.06c0 0.06 0.06 0.12 0.06 0.18q-0.02 0.02-0.03 0.04-0.02 0.02-0.02 0.04-0.01 0.03-0.01 0.05-0.01 0.03 0 0.05zm-8.15 7.61q0 0.03 0 0.06 0 0.03-0.01 0.06-0.01 0.04-0.02 0.06-0.01 0.03-0.03 0.06c-0.06 0.06-0.06 0.12-0.12 0.18q-0.02 0.02-0.04 0.03-0.02 0.01-0.04 0.02-0.03 0.01-0.05 0.01-0.03 0-0.05 0h-0.54q-0.04 0.01-0.08 0-0.04 0-0.08 0-0.03-0.01-0.07-0.03-0.04-0.01-0.07-0.03-0.04 0-0.07-0.01-0.03-0.01-0.06-0.02-0.03-0.02-0.06-0.04-0.03-0.02-0.05-0.05l-0.24-0.24q-0.03-0.05-0.07-0.1-0.03-0.05-0.06-0.1-0.03-0.06-0.06-0.11-0.03-0.06-0.05-0.11l-2.82-4.85c-0.12-0.24-0.3-0.54-0.42-0.78-0.18-0.3-0.3-0.54-0.42-0.78v7.13q-0.01 0.01-0.02 0.02-0.01 0.01-0.03 0.02-0.02 0.01-0.03 0.01-0.02 0.01-0.03 0.01-0.03 0-0.05 0-0.03 0-0.05 0.01-0.03 0.01-0.05 0.02-0.02 0.01-0.03 0.03h-0.6q-0.03 0-0.05 0-0.03 0-0.05-0.01-0.02-0.01-0.05-0.02-0.02-0.01-0.03-0.03-0.02 0-0.03-0.01-0.01 0-0.02-0.01-0.01-0.01-0.01-0.02 0-0.01 0-0.02v-7.97q-0.01-0.05 0-0.11 0.01-0.05 0.03-0.1 0.02-0.05 0.06-0.08 0.04-0.04 0.09-0.07 0.04-0.03 0.08-0.05 0.04-0.02 0.09-0.03 0.04-0.02 0.09-0.03 0.05-0.01 0.1-0.01h0.53q0.05 0 0.1 0 0.04 0 0.09 0.01 0.04 0.01 0.09 0.02 0.04 0.01 0.08 0.03 0.04 0.01 0.07 0.02 0.03 0.01 0.06 0.02 0.03 0.02 0.06 0.04 0.03 0.02 0.05 0.04 0.03 0.03 0.06 0.05 0.02 0.03 0.04 0.06 0.03 0.03 0.05 0.06 0.02 0.04 0.03 0.07 0.03 0.05 0.06 0.09 0.03 0.05 0.06 0.09 0.03 0.05 0.06 0.09 0.03 0.05 0.06 0.09l2.16 3.77q0.04 0.09 0.08 0.17 0.05 0.09 0.09 0.17 0.05 0.08 0.09 0.16 0.05 0.08 0.1 0.16c0.12 0.24 0.24 0.42 0.36 0.66q0.04 0.08 0.08 0.16 0.05 0.07 0.09 0.15 0.05 0.07 0.09 0.15 0.05 0.07 0.1 0.14c0.12 0.18 0.24 0.42 0.36 0.6v-6.83q0.01-0.01 0.03-0.02 0.01-0.01 0.03-0.02 0.01-0.01 0.03-0.01 0.01-0.01 0.03-0.01c0.06 0 0.12-0.06 0.18-0.06h0.54q0.02 0 0.05 0 0.02 0 0.05 0.01 0.02 0.01 0.04 0.02 0.02 0.01 0.04 0.03 0.01 0 0.02 0 0.01 0.01 0.02 0.02 0.01 0.01 0.02 0.02 0 0.01 0 0.02v7.85zm-8.87 0v0.18c0 0.06 0 0.12-0.06 0.12q0 0.01 0 0.02-0.01 0.01-0.02 0.02 0 0.01-0.01 0.01-0.02 0.01-0.03 0.01h-4.43c-0.12 0-0.18-0.06-0.3-0.12-0.12-0.06-0.12-0.18-0.12-0.36v-7.49q0-0.05 0-0.1 0.01-0.05 0.02-0.09 0.02-0.05 0.04-0.09 0.03-0.04 0.06-0.08c0.12-0.06 0.18-0.12 0.3-0.12h4.37l0.06 0.06c0 0.06 0.06 0.06 0.06 0.12v0.42c0 0.06 0 0.12-0.06 0.12q0 0.01 0 0.02 0 0.01-0.01 0.02-0.01 0.01-0.02 0.02-0.01 0-0.03 0h-3.6v2.7h3c0.06 0 0.06 0 0.12 0.06l0.06 0.06c0 0.06 0.06 0.06 0.06 0.12v0.42c0 0.06 0 0.12-0.06 0.12q0 0.01 0 0.02 0 0.01-0.01 0.02-0.01 0.01-0.02 0.01-0.01 0.01-0.03 0.01h-3.12v3.05h3.66q0.01 0 0.02 0.01 0.01 0 0.02 0.01 0.01 0.01 0.02 0.02 0 0.01 0 0.02c0 0.06 0.06 0.06 0.06 0.12zm-7.49 0.3v0.12q-0.01 0.02-0.02 0.03-0.02 0.01-0.03 0.01-0.02 0.01-0.04 0.02-0.01 0-0.03 0-0.02 0-0.05 0-0.02 0.01-0.05 0.01-0.02 0.01-0.04 0.02-0.02 0.02-0.04 0.03h-0.6q-0.02 0.01-0.05 0-0.02 0-0.05-0.01-0.02 0-0.04-0.02-0.02-0.01-0.04-0.03c-0.06 0-0.06-0.06-0.12-0.06v-7.55l-3.17 7.49q0 0.02-0.01 0.03 0 0.01-0.01 0.02-0.01 0-0.02 0.01-0.01 0-0.02 0-0.02 0.02-0.03 0.03-0.01 0.01-0.03 0.01-0.01 0.01-0.03 0.02-0.02 0-0.03 0-0.03 0-0.05 0-0.03 0.01-0.05 0.01-0.02 0.01-0.04 0.02-0.03 0.02-0.04 0.03h-0.48q-0.03 0.01-0.05 0-0.03 0-0.05-0.01-0.02 0-0.04-0.02-0.02-0.01-0.04-0.03c-0.06 0-0.06-0.06-0.12-0.06l-0.06-0.06-3.06-7.49v7.55q-0.01 0.02-0.02 0.03-0.02 0.01-0.03 0.01-0.02 0.01-0.04 0.02-0.01 0-0.03 0-0.02 0-0.05 0-0.02 0.01-0.05 0.01-0.02 0.01-0.04 0.02-0.02 0.02-0.04 0.03h-0.6q-0.02 0.01-0.05 0-0.02 0-0.04-0.01-0.03 0-0.05-0.02-0.02-0.01-0.04-0.03-0.01 0-0.02 0-0.01-0.01-0.02-0.01-0.01-0.01-0.01-0.02-0.01-0.01-0.01-0.03v-7.97q0-0.05 0.01-0.11 0.01-0.06 0.04-0.12 0.02-0.05 0.05-0.1 0.04-0.05 0.08-0.09 0.04-0.02 0.09-0.04 0.04-0.02 0.09-0.04 0.04-0.01 0.09-0.02 0.04-0.01 0.09-0.02h0.72c0.12 0 0.3 0 0.36 0.06 0.12 0 0.18 0.06 0.3 0.12 0.06 0.06 0.18 0.12 0.18 0.24q0.03 0.04 0.05 0.07 0.02 0.04 0.04 0.07 0.01 0.04 0.02 0.08 0.01 0.04 0.01 0.08l2.58 6.18h0.06l2.7-6.18 0.18-0.36q0.01-0.03 0.03-0.06 0.02-0.03 0.04-0.06 0.03-0.03 0.05-0.06 0.03-0.03 0.06-0.06 0.02-0.02 0.05-0.04 0.03-0.02 0.06-0.03 0.03-0.02 0.06-0.03 0.03-0.01 0.07-0.02 0.03 0 0.07-0.01 0.04-0.01 0.07-0.02 0.04-0.01 0.08-0.01 0.04-0.01 0.08-0.02h0.95q0.09 0.02 0.18 0.12c0.06 0.06 0.06 0.12 0.12 0.18 0 0.06 0.06 0.12 0.06 0.24zm-11.86-0.3v0.18c0 0.06 0 0.12-0.06 0.12q0 0.02 0 0.03-0.01 0.01-0.02 0.02 0 0.01-0.02 0.01-0.01 0-0.02 0h-4.43c-0.12 0-0.18-0.06-0.3-0.12-0.12-0.06-0.12-0.18-0.12-0.36v-7.49q-0.01-0.04 0-0.09 0.01-0.05 0.02-0.1 0.02-0.04 0.04-0.09 0.03-0.04 0.06-0.07c0.12-0.06 0.18-0.12 0.3-0.12h4.37l0.06 0.06c0 0.06 0.06 0.06 0.06 0.12v0.41c0 0.06 0 0.12-0.06 0.12q0 0.02 0 0.03-0.01 0.01-0.02 0.02 0 0.01-0.02 0.01-0.01 0.01-0.02 0h-3.6v2.7h3c0.06 0 0.06 0 0.12 0.06l0.06 0.06c0 0.06 0.06 0.06 0.06 0.12v0.42c0 0.06 0 0.12-0.06 0.12q0 0.02 0 0.03-0.01 0.01-0.02 0.02 0 0.01-0.02 0.01-0.01 0-0.02 0h-3.11v3.06h3.65q0.01 0 0.02 0 0.01 0.01 0.02 0.02 0.01 0.01 0.02 0.02 0 0.01 0 0.02c0 0.06 0.06 0.06 0.06 0.12zm-6.71-0.72v0.3c0 0.06 0 0.06-0.06 0.12 0 0.06-0.06 0.06-0.12 0.12q-0.03 0.03-0.06 0.06-0.04 0.03-0.08 0.05-0.04 0.02-0.08 0.04-0.04 0.02-0.08 0.03-0.06 0.04-0.12 0.08-0.07 0.04-0.14 0.07-0.06 0.03-0.14 0.05-0.07 0.02-0.14 0.04c-0.24 0.06-0.48 0.18-0.78 0.24q-0.11 0.03-0.23 0.05-0.12 0.02-0.24 0.04-0.12 0.01-0.24 0.02-0.12 0.01-0.25 0.01-0.2 0-0.39-0.02-0.2-0.02-0.4-0.06-0.19-0.03-0.39-0.09-0.19-0.06-0.37-0.13-0.17-0.07-0.34-0.16-0.16-0.09-0.31-0.19-0.15-0.11-0.29-0.23-0.14-0.12-0.26-0.26-0.13-0.14-0.24-0.3-0.12-0.15-0.22-0.32-0.09-0.17-0.18-0.34-0.08-0.17-0.14-0.36-0.07-0.22-0.12-0.45-0.05-0.23-0.08-0.46-0.03-0.24-0.04-0.47-0.01-0.24 0-0.47 0-0.25 0.02-0.49 0.02-0.24 0.06-0.48 0.03-0.24 0.09-0.48 0.05-0.24 0.13-0.47 0.07-0.19 0.15-0.38 0.09-0.19 0.18-0.37 0.1-0.18 0.21-0.35 0.11-0.17 0.24-0.34 0.13-0.14 0.28-0.26 0.15-0.13 0.31-0.24 0.16-0.11 0.32-0.21 0.17-0.1 0.35-0.19 0.19-0.07 0.39-0.13 0.2-0.05 0.4-0.09 0.2-0.04 0.41-0.06 0.21-0.02 0.41-0.02 0.1 0 0.2 0 0.1 0 0.19 0.01 0.1 0.01 0.2 0.02 0.1 0.01 0.19 0.03 0.38 0.09 0.66 0.18 0.07 0.03 0.14 0.06 0.07 0.02 0.13 0.05 0.07 0.03 0.14 0.07 0.06 0.03 0.13 0.06 0.05 0.03 0.09 0.06 0.05 0.03 0.09 0.06 0.05 0.03 0.09 0.06 0.05 0.03 0.09 0.06l0.12 0.12c0 0.06 0.06 0.06 0.06 0.12v0.54q0 0.03 0 0.05 0 0.02-0.01 0.05-0.01 0.02-0.02 0.04-0.01 0.02-0.03 0.04c0 0.06-0.06 0.06-0.06 0.12h-0.12q-0.04-0.01-0.08-0.02-0.04-0.01-0.08-0.03-0.03-0.01-0.07-0.03-0.04-0.02-0.07-0.04c-0.12-0.06-0.24-0.18-0.42-0.3q-0.08-0.04-0.16-0.08-0.08-0.04-0.16-0.08-0.09-0.04-0.17-0.07-0.08-0.04-0.17-0.07-0.12-0.03-0.23-0.05-0.12-0.02-0.24-0.04-0.12-0.01-0.24-0.02-0.13-0.01-0.25-0.01-0.14-0.01-0.28 0.01-0.14 0.01-0.27 0.04-0.14 0.03-0.27 0.08-0.13 0.04-0.26 0.11-0.11 0.06-0.23 0.14-0.11 0.07-0.22 0.15-0.1 0.08-0.2 0.18-0.1 0.09-0.18 0.19-0.1 0.12-0.18 0.25-0.08 0.13-0.15 0.26-0.07 0.14-0.12 0.28-0.05 0.14-0.09 0.29-0.09 0.35-0.14 0.71-0.04 0.36-0.04 0.73 0 0.36 0.04 0.72 0.05 0.36 0.14 0.71 0.03 0.15 0.08 0.28 0.05 0.14 0.12 0.27 0.07 0.13 0.15 0.25 0.09 0.12 0.19 0.22 0.08 0.1 0.18 0.2 0.1 0.09 0.2 0.17 0.11 0.08 0.22 0.16 0.12 0.07 0.23 0.13 0.14 0.06 0.28 0.1 0.14 0.04 0.28 0.07 0.15 0.03 0.29 0.05 0.15 0.02 0.29 0.02 0.12 0 0.24-0.01 0.13-0.01 0.25-0.02 0.12-0.02 0.23-0.04 0.12-0.02 0.24-0.05 0.09-0.02 0.18-0.05 0.08-0.03 0.16-0.07 0.09-0.04 0.17-0.08 0.08-0.05 0.15-0.1 0.06-0.03 0.13-0.07 0.06-0.03 0.12-0.07 0.06-0.04 0.11-0.08 0.06-0.04 0.12-0.08 0.03-0.02 0.07-0.04 0.04-0.01 0.07-0.03 0.04-0.01 0.08-0.03 0.04-0.01 0.08-0.02h0.06l0.06 0.06c0 0.06 0 0.06 0.06 0.18zm-7.73 1.02v0.12l-0.06 0.06c-0.06 0-0.12 0.06-0.18 0.06h-0.66q-0.02 0-0.05 0-0.02 0-0.04-0.01-0.03-0.01-0.05-0.02-0.02-0.01-0.04-0.03c-0.06 0-0.06-0.06-0.12-0.06 0-0.06-0.06-0.06-0.06-0.12l-0.83-2.04c-0.12-0.24-0.18-0.42-0.3-0.66q-0.04-0.06-0.09-0.12-0.04-0.06-0.08-0.12-0.05-0.06-0.1-0.12-0.04-0.06-0.09-0.11-0.06-0.05-0.11-0.1-0.06-0.04-0.12-0.08-0.06-0.04-0.12-0.07-0.07-0.03-0.13-0.05-0.09-0.03-0.18-0.06-0.09-0.02-0.18-0.03-0.09-0.02-0.18-0.03-0.09 0-0.18 0h-0.78v3.59c0 0.06 0 0.06-0.06 0.12q-0.01 0.02-0.03 0.03-0.01 0.01-0.03 0.01-0.01 0.01-0.03 0.02-0.01 0-0.03 0-0.03 0-0.05 0-0.02 0.01-0.05 0.01-0.02 0.01-0.04 0.03-0.02 0.01-0.04 0.02h-0.6q-0.03 0.01-0.05 0.01-0.02-0.01-0.05-0.01-0.02-0.01-0.04-0.03-0.02-0.01-0.04-0.03c-0.06 0-0.06-0.06-0.12-0.06v-8.03q0-0.05 0-0.1 0.01-0.04 0.02-0.09 0.02-0.05 0.04-0.09 0.03-0.04 0.06-0.08c0.12-0.06 0.18-0.12 0.3-0.12h2.46q0.05 0 0.1 0 0.06 0 0.11 0.01 0.05 0.01 0.1 0.02 0.05 0.01 0.1 0.03 0.12 0.01 0.24 0.04 0.12 0.02 0.23 0.06 0.12 0.04 0.22 0.09 0.11 0.05 0.21 0.11 0.1 0.05 0.18 0.1 0.09 0.06 0.17 0.12 0.08 0.06 0.16 0.12 0.08 0.07 0.15 0.14 0.07 0.07 0.13 0.15 0.06 0.08 0.11 0.16 0.05 0.09 0.1 0.17 0.04 0.09 0.08 0.18 0.03 0.1 0.05 0.21 0.02 0.1 0.04 0.2 0.01 0.11 0.02 0.22 0.01 0.1 0.01 0.21 0 0.1-0.01 0.19-0.01 0.1-0.02 0.2-0.02 0.1-0.04 0.2-0.02 0.09-0.05 0.19-0.02 0.08-0.05 0.16-0.04 0.09-0.08 0.16-0.05 0.08-0.11 0.15-0.05 0.07-0.12 0.13c-0.18 0.18-0.36 0.3-0.54 0.48q-0.08 0.05-0.17 0.09-0.08 0.04-0.17 0.08-0.09 0.04-0.19 0.07-0.09 0.03-0.18 0.06 0.05 0.02 0.11 0.04 0.05 0.03 0.1 0.06 0.06 0.03 0.11 0.06 0.05 0.04 0.1 0.08 0.05 0.03 0.09 0.08 0.05 0.04 0.1 0.08 0.04 0.05 0.08 0.1 0.05 0.04 0.09 0.09 0.04 0.06 0.08 0.12 0.04 0.06 0.08 0.12 0.03 0.06 0.07 0.12 0.03 0.06 0.06 0.12 0.05 0.08 0.09 0.15 0.04 0.07 0.07 0.15 0.04 0.07 0.08 0.15 0.03 0.08 0.06 0.15l0.78 1.86q0.02 0.04 0.04 0.09 0.02 0.04 0.03 0.09 0.02 0.04 0.03 0.09 0.01 0.04 0.02 0.09 0.07-0.09 0.06 0zm-1.8-5.99q0.01-0.11 0-0.22-0.01-0.11-0.04-0.22-0.03-0.11-0.08-0.21-0.05-0.1-0.12-0.19-0.07-0.09-0.15-0.18-0.09-0.08-0.19-0.14-0.1-0.06-0.21-0.1-0.11-0.04-0.23-0.06-0.05-0.02-0.1-0.03-0.05-0.02-0.1-0.02-0.05-0.01-0.11-0.01-0.05 0-0.11 0h-1.61v2.88h1.14q0.1 0 0.21-0.01 0.1-0.01 0.21-0.03 0.1-0.01 0.21-0.03 0.1-0.02 0.2-0.05 0.09-0.03 0.16-0.06 0.08-0.03 0.16-0.06 0.07-0.04 0.15-0.09 0.07-0.04 0.13-0.09 0.06-0.05 0.11-0.11 0.05-0.05 0.1-0.11 0.04-0.06 0.08-0.13 0.04-0.06 0.07-0.13 0.04-0.07 0.06-0.14 0.03-0.08 0.04-0.15 0.02-0.08 0.02-0.16 0.01-0.07 0-0.15zm-6.23 1.8q0.01 0.23 0 0.47-0.01 0.23-0.04 0.47-0.03 0.23-0.08 0.46-0.05 0.23-0.11 0.45-0.07 0.2-0.15 0.39-0.08 0.19-0.17 0.37-0.1 0.18-0.22 0.35-0.11 0.17-0.24 0.33-0.13 0.15-0.27 0.29-0.15 0.13-0.31 0.24-0.15 0.12-0.33 0.21-0.17 0.09-0.35 0.16-0.22 0.08-0.44 0.13-0.22 0.06-0.45 0.1-0.23 0.03-0.45 0.05-0.23 0.02-0.46 0.02-0.22 0-0.44-0.02-0.23-0.01-0.44-0.05-0.22-0.04-0.44-0.1-0.21-0.05-0.42-0.13-0.17-0.06-0.34-0.15-0.16-0.08-0.31-0.19-0.15-0.11-0.29-0.23-0.14-0.13-0.26-0.27-0.12-0.15-0.23-0.32-0.1-0.16-0.19-0.33-0.09-0.18-0.17-0.36-0.07-0.18-0.13-0.36-0.07-0.23-0.11-0.46-0.05-0.23-0.08-0.46-0.03-0.24-0.04-0.47-0.02-0.24-0.01-0.47 0-0.24 0.01-0.47 0.01-0.24 0.04-0.47 0.03-0.23 0.08-0.46 0.05-0.23 0.11-0.46 0.06-0.19 0.14-0.38 0.07-0.18 0.17-0.35 0.1-0.18 0.22-0.34 0.12-0.16 0.25-0.31 0.14-0.13 0.29-0.26 0.15-0.12 0.3-0.24 0.16-0.11 0.33-0.21 0.17-0.1 0.34-0.19 0.22-0.07 0.44-0.13 0.22-0.06 0.45-0.09 0.22-0.04 0.45-0.06 0.23-0.02 0.46-0.02 0.22 0 0.44 0.02 0.22 0.02 0.44 0.06 0.22 0.03 0.43 0.09 0.22 0.06 0.43 0.13 0.17 0.07 0.33 0.15 0.17 0.09 0.32 0.2 0.15 0.1 0.29 0.23 0.14 0.12 0.26 0.26 0.12 0.16 0.22 0.32 0.11 0.16 0.2 0.34 0.09 0.17 0.16 0.35 0.08 0.18 0.14 0.37 0.06 0.22 0.11 0.44 0.05 0.22 0.08 0.45 0.03 0.22 0.04 0.45 0.01 0.23 0 0.46zm-1.25 0.06q-0.01-0.18-0.02-0.35 0-0.17-0.02-0.34-0.01-0.18-0.04-0.35-0.02-0.17-0.04-0.34-0.03-0.14-0.07-0.28-0.04-0.15-0.09-0.28-0.05-0.14-0.12-0.27-0.06-0.13-0.14-0.25-0.09-0.11-0.18-0.21-0.09-0.11-0.2-0.2-0.11-0.09-0.22-0.17-0.12-0.07-0.24-0.14-0.32-0.12-0.65-0.18-0.34-0.07-0.68-0.06-0.34 0.01-0.67 0.09-0.33 0.07-0.64 0.21-0.13 0.06-0.24 0.14-0.12 0.07-0.23 0.16-0.1 0.09-0.2 0.2-0.09 0.1-0.17 0.22-0.08 0.12-0.16 0.25-0.07 0.13-0.13 0.27-0.06 0.13-0.11 0.27-0.04 0.14-0.08 0.29-0.03 0.16-0.06 0.32-0.03 0.17-0.04 0.33-0.02 0.17-0.02 0.34 0 0.16 0 0.33 0.01 0.17 0.02 0.34 0.01 0.18 0.02 0.35 0.02 0.17 0.04 0.34 0.02 0.17 0.04 0.34 0.03 0.15 0.07 0.29 0.04 0.14 0.09 0.28 0.05 0.13 0.12 0.26 0.07 0.13 0.14 0.25 0.08 0.12 0.17 0.23 0.1 0.1 0.2 0.19 0.11 0.09 0.23 0.17 0.12 0.07 0.24 0.13 0.32 0.13 0.65 0.19 0.34 0.06 0.68 0.05 0.34-0.01 0.67-0.08 0.33-0.08 0.64-0.22 0.13-0.06 0.25-0.13 0.11-0.08 0.22-0.17 0.11-0.09 0.2-0.19 0.09-0.11 0.17-0.23 0.08-0.12 0.16-0.25 0.07-0.13 0.13-0.26 0.06-0.14 0.11-0.28 0.05-0.14 0.08-0.29 0.03-0.16 0.06-0.32 0.03-0.16 0.04-0.33 0.02-0.17 0.02-0.33 0-0.17 0-0.33zm-8.09-3.78v0.24c0 0.06 0 0.12-0.06 0.12q0 0.01-0.01 0.02 0 0.02-0.01 0.02-0.01 0.01-0.02 0.02-0.01 0-0.02 0h-3.42v2.94h3.24q0.01 0 0.02 0 0.01 0.01 0.02 0.01 0.01 0.01 0.01 0.02 0.01 0.02 0.01 0.03c0 0.06 0.06 0.06 0.06 0.12v0.48c0 0.06 0 0.12-0.06 0.12q0 0.01-0.01 0.02 0 0.01-0.01 0.02-0.01 0.01-0.02 0.01-0.01 0.01-0.02 0.01h-3.24v3.77q-0.01 0.01-0.03 0.02-0.01 0.01-0.03 0.02-0.01 0.01-0.03 0.01-0.01 0.01-0.03 0.01-0.03 0-0.05 0-0.02 0-0.05 0.01-0.02 0.01-0.04 0.02-0.02 0.01-0.04 0.03h-0.6q-0.03 0-0.05 0-0.02 0-0.05-0.01-0.02-0.01-0.04-0.02-0.02-0.01-0.04-0.03c-0.06 0-0.06-0.06-0.12-0.06v-7.97q0-0.05 0-0.1 0.01-0.04 0.02-0.09 0.02-0.05 0.04-0.09 0.03-0.04 0.06-0.08c0.12-0.06 0.18-0.12 0.3-0.12h4.13q0.01 0 0.03 0.01 0.01 0 0.02 0.01 0 0.01 0.01 0.02 0 0.01 0 0.02c0 0.06 0.06 0.12 0.06 0.18q0.02 0.03 0.03 0.06 0.01 0.03 0.02 0.06 0.01 0.03 0.01 0.06 0.01 0.03 0.01 0.06zm-7.25 7.61q0 0.03 0 0.06 0 0.03-0.01 0.07-0.01 0.03-0.02 0.05-0.01 0.03-0.03 0.06c-0.06 0.06-0.06 0.12-0.12 0.18q-0.02 0.02-0.04 0.03-0.02 0.01-0.05 0.02-0.02 0.01-0.04 0.01-0.03 0-0.05 0h-0.48q-0.04 0.01-0.08 0-0.04 0-0.08 0-0.03-0.01-0.07-0.03-0.04-0.01-0.07-0.03-0.03-0.01-0.07-0.02-0.03-0.01-0.06-0.02-0.03-0.02-0.06-0.04-0.03-0.02-0.05-0.04l-0.24-0.24q-0.04-0.05-0.07-0.1-0.03-0.05-0.06-0.1-0.03-0.06-0.06-0.11-0.03-0.05-0.05-0.11l-2.82-4.85c-0.12-0.24-0.3-0.54-0.42-0.78-0.18-0.3-0.3-0.54-0.42-0.78v7.13q-0.01 0.01-0.02 0.02-0.02 0.01-0.03 0.02-0.02 0.01-0.03 0.01-0.02 0.01-0.04 0.01-0.02 0-0.04 0-0.03 0-0.05 0.01-0.03 0.01-0.05 0.02-0.02 0.01-0.04 0.03h-0.6q-0.02 0-0.04 0-0.03 0-0.05-0.01-0.03-0.01-0.05-0.02-0.02-0.01-0.04-0.03-0.01 0-0.02 0-0.01-0.01-0.02-0.02-0.01-0.01-0.01-0.02-0.01-0.01-0.01-0.02v-7.97q0-0.05 0.01-0.1 0.01-0.06 0.03-0.11 0.02-0.04 0.06-0.08 0.04-0.04 0.08-0.07 0.05-0.02 0.09-0.04 0.04-0.02 0.09-0.04 0.04-0.01 0.09-0.02 0.05-0.01 0.09-0.02h0.54q0.05 0 0.1 0 0.04 0 0.09 0.01 0.04 0.01 0.09 0.02 0.04 0.01 0.08 0.03 0.04 0.01 0.07 0.02 0.03 0.01 0.06 0.02 0.03 0.02 0.06 0.04 0.03 0.02 0.05 0.04 0.03 0.03 0.06 0.05 0.02 0.03 0.04 0.06 0.03 0.03 0.05 0.07 0.02 0.03 0.03 0.06 0.03 0.05 0.06 0.09 0.03 0.05 0.06 0.09 0.03 0.05 0.06 0.09 0.03 0.05 0.06 0.09l2.16 3.78q0.04 0.08 0.08 0.16 0.05 0.09 0.09 0.17 0.05 0.08 0.09 0.16 0.05 0.09 0.1 0.16c0.12 0.24 0.24 0.42 0.36 0.66q0.04 0.08 0.08 0.16 0.05 0.07 0.09 0.15 0.05 0.07 0.09 0.15 0.05 0.07 0.1 0.14c0.12 0.18 0.24 0.42 0.36 0.6v-6.83q0.01-0.01 0.03-0.02 0.01-0.01 0.03-0.02 0.01-0.01 0.03-0.01 0.01-0.01 0.03-0.01c0.06 0 0.12-0.06 0.18-0.06h0.54q0.02 0 0.05 0 0.02 0 0.05 0.01 0.02 0.01 0.04 0.02 0.02 0.02 0.04 0.03 0.01 0 0.02 0.01 0.01 0 0.02 0.01 0.01 0.01 0.01 0.02 0.01 0.01 0.01 0.02v7.85zm-8.87 0v0.18c0 0.06 0 0.12-0.06 0.12q0 0.01 0 0.02-0.01 0.02-0.02 0.02 0 0.01-0.02 0.02-0.01 0-0.02 0h-4.43c-0.12 0-0.18-0.06-0.3-0.12-0.12-0.06-0.12-0.18-0.12-0.36v-7.49q-0.01-0.05 0-0.09 0.01-0.05 0.02-0.1 0.02-0.05 0.04-0.09 0.03-0.04 0.06-0.08c0.12-0.06 0.18-0.12 0.3-0.12h4.37l0.06 0.06c0 0.06 0.06 0.06 0.06 0.12v0.42c0 0.06 0 0.12-0.06 0.12q0 0.01 0 0.03-0.01 0.01-0.02 0.01 0 0.01-0.02 0.02-0.01 0-0.02 0h-3.6v2.7h3c0.06 0 0.06 0 0.12 0.06l0.06 0.06c0 0.06 0.06 0.06 0.06 0.12v0.42c0 0.06 0 0.12-0.06 0.12q0 0.01 0 0.02-0.01 0.02-0.02 0.02 0 0.01-0.02 0.02-0.01 0-0.02 0h-3.12v3.06h3.66q0.01 0 0.02 0 0.01 0.01 0.02 0.01 0.01 0.01 0.01 0.02 0.01 0.02 0.01 0.03c0 0.06 0.06 0.06 0.06 0.12z"/>
		</g>
	</g>
</svg>